<svg xmlns="http://www.w3.org/2000/svg" viewBox="0 0 500 500"><g id="freepik--Floor--inject-110"><path id="freepik--floor--inject-110" d="M100,278.54c-80.61,46.54-80.61,122,0,168.54s211.33,46.55,291.94,0,80.61-122,0-168.54S180.64,232,100,278.54Z" style="fill:#fafafa"></path></g><g id="freepik--Plants--inject-110"><g id="freepik--plants--inject-110"><path d="M441.57,395.4,453.06,402c-.15-4.1-.51-10.2.06-14.31,3.47-25.12,13.25-33.41,17.91-45.63,4.9-12.88-1.08-17-8.84-14.71-6.93,2.07-16.94,12.31-20.1,31.06C440,370.91,440.36,384.46,441.57,395.4Z" style="fill:#00006C"></path><path d="M441.57,395.4,453.06,402c-.15-4.1-.51-10.2.06-14.31,3.47-25.12,13.25-33.41,17.91-45.63,4.9-12.88-1.08-17-8.84-14.71-6.93,2.07-16.94,12.31-20.1,31.06C440,370.91,440.36,384.46,441.57,395.4Z" style="fill:#fff;opacity:0.65"></path><path d="M447.66,398.91l1.15.67c-4.11-29.29,5.9-54.69,15.79-65.19a.5.5,0,0,0,0-.71.52.52,0,0,0-.72,0C454,344.2,444,369.77,447.66,398.91Z" style="fill:#fff"></path><path d="M449.83,400.17l6.47,3.73h0c3.44-10.12,7-14.18,11.36-20.84,4-6.06,8.64-9.81,11.11-14.07,2.18-3.78,3.83-8.51.58-11.38-5.17-4.57-11.92.26-16.56,5.48C458.78,367.61,450.72,379.62,449.83,400.17Z" style="fill:#00006C"></path><path d="M449.83,400.17l6.47,3.73h0c3.44-10.12,7-14.18,11.36-20.84,4-6.06,8.64-9.81,11.11-14.07,2.18-3.78,3.83-8.51.58-11.38-5.17-4.57-11.92.26-16.56,5.48C458.78,367.61,450.72,379.62,449.83,400.17Z" style="fill:#fff;opacity:0.30000000000000004"></path><path d="M452.49,401.7l.94.55c2.71-16,13.59-34.55,20.35-38.92a.52.52,0,0,0,.15-.72.51.51,0,0,0-.71-.15C466.22,367,455.37,385.44,452.49,401.7Z" style="fill:#fff"></path></g><g id="freepik--plants--inject-110"><path d="M60.44,399.24l-10.35,6c.14-3.7.46-9.19-.05-12.89-3.13-22.63-11.94-30.09-16.14-41.1-4.41-11.6,1-15.33,8-13.25,6.23,1.86,15.26,11.09,18.1,28C61.86,377.19,61.52,389.39,60.44,399.24Z" style="fill:#00006C"></path><path d="M60.44,399.24l-10.35,6c.14-3.7.46-9.19-.05-12.89-3.13-22.63-11.94-30.09-16.14-41.1-4.41-11.6,1-15.33,8-13.25,6.23,1.86,15.26,11.09,18.1,28C61.86,377.19,61.52,389.39,60.44,399.24Z" style="fill:#fff;opacity:0.65"></path><path d="M55,402.41l-1,.6c3.7-26.38-5.32-49.26-14.22-58.71a.46.46,0,0,1,0-.64.47.47,0,0,1,.65,0C49.26,353.13,58.27,376.16,55,402.41Z" style="fill:#fff"></path><path d="M53,403.54l-5.83,3.36h0c-3.1-9.12-6.28-12.77-10.23-18.77-3.6-5.46-7.78-8.84-10-12.67-2-3.4-3.45-7.67-.52-10.25,4.66-4.12,10.73.24,14.91,4.94C44.93,374.21,52.2,385,53,403.54Z" style="fill:#00006C"></path><path d="M53,403.54l-5.83,3.36h0c-3.1-9.12-6.28-12.77-10.23-18.77-3.6-5.46-7.78-8.84-10-12.67-2-3.4-3.45-7.67-.52-10.25,4.66-4.12,10.73.24,14.91,4.94C44.93,374.21,52.2,385,53,403.54Z" style="fill:#fff;opacity:0.30000000000000004"></path><path d="M50.61,404.92l-.85.49C47.31,391,37.52,374.3,31.43,370.36a.47.47,0,0,1,.5-.79C38.23,373.66,48,390.27,50.61,404.92Z" style="fill:#fff"></path></g></g><g id="freepik--Shadows--inject-110"><ellipse id="freepik--Shadow--inject-110" cx="411.86" cy="416.76" rx="50.5" ry="29.15" style="fill:#e0e0e0"></ellipse><ellipse id="freepik--shadow--inject-110" cx="86.84" cy="419.89" rx="50.5" ry="29.15" style="fill:#e0e0e0"></ellipse><ellipse id="freepik--shadow--inject-110" cx="259.49" cy="380.89" rx="50.85" ry="29.36" style="fill:#e0e0e0"></ellipse><path id="freepik--shadow--inject-110" d="M353.72,258.84,336.16,248.7a4.15,4.15,0,0,0-3.79,0L111.92,376a1.16,1.16,0,0,0,0,2.2l17.73,10.32a4.18,4.18,0,0,0,3.79,0l37.3-21.58a17.44,17.44,0,0,0,1.65,1.09L201,384.49a27.48,27.48,0,0,0,25.32,0l55.13-31.82c4.1-2.37,6.44-5.89,6.44-9.67s-2.34-7.31-6.44-9.67l-26.34-15.21L353.73,261A1.16,1.16,0,0,0,353.72,258.84Z" style="fill:#e0e0e0"></path></g><g id="freepik--Device--inject-110"><g id="freepik--Monitor--inject-110"><path d="M279.37,333l-28.57-16.5c-5.86-3.38-15.74-4.16-22.06-1.72l-17,6.52a97.81,97.81,0,0,0-21.07,12L173.45,346.9a8.62,8.62,0,0,0-3.7,6.65c0,.65,0,3.27,0,3.94,0,2.62,1.6,5.17,4.69,7L203,380.94c5.86,3.39,15.37,3.39,21.23,0l55.13-31.83c2.94-1.7,4.4-3.93,4.39-6.16,0-.63,0-3.16,0-3.8C283.76,336.93,282.3,334.71,279.37,333Z" style="fill:#e6e6e6"></path><path d="M169.75,357.49c0,2.62,1.6,5.17,4.69,7L203,380.94a21.71,21.71,0,0,0,10.61,2.54V379.4l-43.87-25.33C169.75,355.08,169.74,356.94,169.75,357.49Z" style="fill:#e0e0e0"></path><path d="M169.75,357.49c0,2.62,1.6,5.17,4.69,7L203,380.94a21.71,21.71,0,0,0,10.61,2.54V379.4l-43.87-25.33C169.75,355.08,169.74,356.94,169.75,357.49Z" style="opacity:0.1"></path><path d="M228.74,314.8l-17,6.52a97.81,97.81,0,0,0-21.07,12L173.45,346.9c-5.32,4.19-4.88,10.33,1,13.71L203,377.11c5.86,3.38,15.37,3.38,21.23,0l55.13-31.83c5.86-3.39,5.86-8.88,0-12.26l-28.57-16.5C244.94,313.14,235.06,312.36,228.74,314.8Z" style="fill:#f0f0f0"></path><path d="M250.8,316.52c-5.86-3.38-15.74-4.16-22.06-1.72l-17,6.52a97.81,97.81,0,0,0-21.07,12L173.45,346.9a8.62,8.62,0,0,0-3.7,6.65c0,.65,0,3.27,0,3.94,0,2.62,1.6,5.17,4.69,7l15.91,9.19v-3.82l76.38-44.1Z" style="opacity:0.1"></path><path d="M224,333.87c0-8.42,2.64-34.94,8.17-41.15l-17.68-2c-8.7,9.2-19.11,31.16-25.42,43.82,0,0,5.19,2.11,11.6,4.76s15.31,2.65,19.9,0a6.18,6.18,0,0,0,3.43-5.47Z" style="fill:#e0e0e0"></path><path d="M224,333.87c0-8.42,2.64-34.94,8.17-41.15l-17.68-2c-8.7,9.2-19.11,31.16-25.42,43.82,0,0,5.19,2.11,11.6,4.76s15.31,2.65,19.9,0a6.18,6.18,0,0,0,3.43-5.47Z" style="opacity:0.1"></path><path d="M220.73,293.32c3.43,1.42,8.21,1.42,10.67,0s2.45-4.18,0-6.17L227,283.56a51,51,0,0,0-12.43,7.2Z" style="fill:#e0e0e0"></path><path d="M124,375.39a10.08,10.08,0,0,0,9.12-.17l214.1-123.63a10.36,10.36,0,0,0,4.7-8.14V45.61a10.08,10.08,0,0,0-4.41-8,10.09,10.09,0,0,0-9.11.17L124.3,161.43a10.39,10.39,0,0,0-4.7,8.15V367.42A10.07,10.07,0,0,0,124,375.39Z" style="fill:#455a64"></path><path d="M133.12,375.22l214.1-123.63a10.39,10.39,0,0,0,4.7-8.14V45.6c0-3-2.1-4.21-4.7-2.71L133.12,166.52a10.37,10.37,0,0,0-4.7,8.14V372.5C128.42,375.5,130.52,376.72,133.12,375.22Z" style="fill:#37474f"></path><path d="M128.42,356.51v16c0,3,2.1,4.22,4.7,2.72l214.1-123.63a10.39,10.39,0,0,0,4.7-8.14v-16Z" style="fill:#ebebeb"></path><path d="M134.63,341.63V176.76a6.41,6.41,0,0,1,2.89-5L342.81,53.21c1.6-.92,2.89-.18,2.89,1.67V219.75a6.39,6.39,0,0,1-2.89,5L137.52,343.3C135.92,344.22,134.63,343.47,134.63,341.63Z" style="fill:#263238"></path><path d="M121,164.93,129.8,170a9.94,9.94,0,0,0-1.39,4.65V372.5c0,2.74,1.85,4.27,4.7,2.72a10,10,0,0,1-9.12.17,9.05,9.05,0,0,1-4.41-7.4V169.58A9.72,9.72,0,0,1,121,164.93Z" style="fill:#263238"></path><path d="M237.58,302.41l10.63-6.1c.95-.55,1.73-.16,1.73.87a3.71,3.71,0,0,1-1.73,2.86l-10.63,6.11c-1,.55-1.73.16-1.73-.87A3.68,3.68,0,0,1,237.58,302.41Z" style="fill:#00006C"></path></g><g id="freepik--Window--inject-110"><path d="M140.73,334.94a1.55,1.55,0,0,1-1.54-1.54V177.1l0-.07a1.49,1.49,0,0,1,.28-.49l.11-.09L339.23,61a1.55,1.55,0,0,1,2.32,1.34v156.3l0,.07a1.72,1.72,0,0,1-.28.49l-.11.08L141.5,334.73A1.51,1.51,0,0,1,140.73,334.94ZM140,177.25V333.4a.69.69,0,0,0,.35.6.71.71,0,0,0,.69,0L340.64,218.61a.53.53,0,0,0,.06-.1V62.36a.68.68,0,0,0-.35-.6.66.66,0,0,0-.69,0L140.1,177.14Z" style="fill:#455a64"></path><path d="M341.12,76.91V62.36a1.12,1.12,0,0,0-1.68-1L139.82,176.82a.94.94,0,0,0-.2.35v16.25Z" style="fill:#37474f"></path><path d="M144.32,176.8l1.24-.71c.6-.35,1.1-.07,1.1.63v1.44a2.44,2.44,0,0,1-1.1,1.9l-1.24.72c-.61.35-1.1.06-1.1-.64v-1.43A2.43,2.43,0,0,1,144.32,176.8Z" style="fill:#00006C"></path><path d="M144.32,184l1.24-.71c.6-.35,1.1-.07,1.1.63v1.43a2.45,2.45,0,0,1-1.1,1.91l-1.24.72c-.61.35-1.1.06-1.1-.64v-1.43A2.43,2.43,0,0,1,144.32,184Z" style="fill:#455a64"></path><path d="M168.4,170.13l1.24-.72c.61-.35,1.1-.06,1.1.64v1.43a2.43,2.43,0,0,1-1.1,1.91l-1.24.71c-.61.35-1.1.07-1.1-.63V172A2.42,2.42,0,0,1,168.4,170.13Z" style="fill:#455a64"></path><path d="M175.28,166.16l1.24-.72c.61-.35,1.1-.07,1.1.64v1.43a2.42,2.42,0,0,1-1.1,1.9l-1.24.72c-.61.35-1.1.07-1.1-.64v-1.43A2.42,2.42,0,0,1,175.28,166.16Z" style="fill:#263238"></path><path d="M182.16,162.18l1.24-.71c.61-.35,1.1-.07,1.1.63v1.43a2.42,2.42,0,0,1-1.1,1.91l-1.24.72c-.61.35-1.1.06-1.1-.64v-1.43A2.43,2.43,0,0,1,182.16,162.18Z" style="fill:#455a64"></path><path d="M150.1,175.88a.44.44,0,0,1-.37-.21.42.42,0,0,1,.15-.58l10.33-6a.41.41,0,0,1,.57.15.42.42,0,0,1-.15.58l-10.32,6A.42.42,0,0,1,150.1,175.88Z" style="fill:#455a64"></path><path d="M181.06,158a.45.45,0,0,1-.37-.21.43.43,0,0,1,.16-.58l10.32-6a.42.42,0,0,1,.58.15.41.41,0,0,1-.16.58l-10.32,6A.39.39,0,0,1,181.06,158Z" style="fill:#455a64"></path><path d="M225.79,132.18a.42.42,0,0,1-.37-.22.41.41,0,0,1,.16-.57l10.32-6a.41.41,0,0,1,.57.15.42.42,0,0,1-.15.58l-10.32,6A.42.42,0,0,1,225.79,132.18Z" style="fill:#455a64"></path><path d="M167.3,165.94a.42.42,0,0,1-.21-.79l6.88-4a.42.42,0,1,1,.42.73l-6.88,4A.41.41,0,0,1,167.3,165.94Z" style="fill:#455a64"></path><path d="M198.26,148.07a.42.42,0,0,1-.21-.79l6.88-4a.43.43,0,0,1,.58.16.42.42,0,0,1-.15.58l-6.89,4A.39.39,0,0,1,198.26,148.07Z" style="fill:#455a64"></path><path d="M212,140.12a.42.42,0,0,1-.37-.21.42.42,0,0,1,.15-.58l6.88-4a.42.42,0,0,1,.43.73l-6.88,4A.42.42,0,0,1,212,140.12Z" style="fill:#455a64"></path><path d="M243,122.24a.42.42,0,0,1-.37-.21.43.43,0,0,1,.16-.58l6.88-4a.42.42,0,1,1,.42.73l-6.88,4A.41.41,0,0,1,243,122.24Z" style="fill:#455a64"></path><path d="M256.75,114.3a.45.45,0,0,1-.37-.21.43.43,0,0,1,.16-.58l3.44-2a.43.43,0,0,1,.58.16.42.42,0,0,1-.16.58l-3.44,2A.39.39,0,0,1,256.75,114.3Z" style="fill:#455a64"></path><path d="M267.07,108.34a.42.42,0,0,1-.36-.21.42.42,0,0,1,.15-.58l10.32-6a.42.42,0,0,1,.58.16.41.41,0,0,1-.15.57l-10.33,6A.39.39,0,0,1,267.07,108.34Z" style="fill:#455a64"></path><path d="M150.83,179.89l8.85-5.12c.41-.23.74,0,.74.43v2.28a1.64,1.64,0,0,1-.74,1.27l-8.85,5.11c-.41.23-.73,0-.73-.42v-2.28A1.59,1.59,0,0,1,150.83,179.89Z" style="fill:#263238"></path><path d="M188.68,158l8.85-5.11c.4-.24.73,0,.73.42v2.28a1.62,1.62,0,0,1-.73,1.27L188.68,162c-.41.24-.74.05-.74-.42v-2.28A1.6,1.6,0,0,1,188.68,158Z" style="fill:#263238"></path><path d="M223.08,138.14l8.85-5.12c.41-.23.74,0,.74.43v2.28a1.64,1.64,0,0,1-.74,1.27l-8.85,5.11c-.4.23-.73,0-.73-.43v-2.27A1.62,1.62,0,0,1,223.08,138.14Z" style="fill:#263238"></path><path d="M254,120.26l8.86-5.11c.4-.24.73-.05.73.42v2.28a1.64,1.64,0,0,1-.73,1.27L254,124.23c-.4.23-.73,0-.73-.42v-2.28A1.62,1.62,0,0,1,254,120.26Z" style="fill:#263238"></path><path d="M205.14,150.68a.41.41,0,0,1-.36-.21.42.42,0,0,1,.15-.58L218.69,142a.42.42,0,1,1,.43.73l-13.76,7.95A.42.42,0,0,1,205.14,150.68Z" style="fill:#455a64"></path><path d="M239.56,130.92a.43.43,0,0,1-.21-.79l9.22-5.33a.42.42,0,0,1,.58.16.41.41,0,0,1-.15.57l-9.23,5.33A.39.39,0,0,1,239.56,130.92Z" style="fill:#455a64"></path><path d="M337.83,65.25c.84-.48,1.52-.09,1.52.88a3.35,3.35,0,0,1-1.52,2.63c-.84.48-1.52.09-1.52-.88A3.38,3.38,0,0,1,337.83,65.25Z" style="fill:#e0e0e0"></path><path d="M332.37,68.41c.83-.49,1.51-.1,1.51.87a3.36,3.36,0,0,1-1.51,2.63c-.84.49-1.52.09-1.52-.87A3.35,3.35,0,0,1,332.37,68.41Z" style="fill:#263238"></path><path d="M326.9,71.56c.84-.49,1.52-.09,1.52.87a3.35,3.35,0,0,1-1.52,2.63c-.84.49-1.52.1-1.52-.87A3.35,3.35,0,0,1,326.9,71.56Z" style="fill:#263238"></path></g></g><g id="freepik--Screen--inject-110"><g id="freepik--window--inject-110"><g id="freepik--window--inject-110"><path d="M151.7,348.06a1.7,1.7,0,0,0,.85-.26L360,227.83a7.13,7.13,0,0,0,3.19-5.5V78.49c0-1.18-.5-1.89-1.34-1.89a2.72,2.72,0,0,0-1.26.39L153.14,196.91a7.14,7.14,0,0,0-3.18,5.51v143a3.46,3.46,0,0,0,.55,1.94A1.5,1.5,0,0,0,151.7,348.06Z" style="fill:#fff"></path><path d="M146.4,345.91l4.25,2.41a3.55,3.55,0,0,1-1.27-2.91V207.07l-4.44-2.56V342.9A3.36,3.36,0,0,0,146.4,345.91Z" style="fill:#37474f"></path><path id="freepik--Outline--inject-110" d="M361.87,77.18c.65,0,.75.82.75,1.31V222.33a6.46,6.46,0,0,1-2.89,5l-207.47,120a1.19,1.19,0,0,1-.56.17c-.62,0-1.16-1-1.16-2.06v-143a6.47,6.47,0,0,1,2.89-5L360.91,77.5a2,2,0,0,1,1-.32m0-1.17a3.18,3.18,0,0,0-1.55.48L152.84,196.41a7.67,7.67,0,0,0-3.47,6v143c0,1.75,1,3.23,2.33,3.23a2.33,2.33,0,0,0,1.15-.33l207.47-120a7.66,7.66,0,0,0,3.47-6V78.49c0-1.57-.78-2.48-1.92-2.48Z" style="fill:#455a64"></path><g id="freepik--up-bar--inject-110"><path d="M363.79,78.42v4.74L149.38,207.07l-4.44-2.56v-4.62a7.26,7.26,0,0,1,1.05-3.47,7,7,0,0,1,2.42-2.53L355.89,74a2.48,2.48,0,0,1,2.53-.21c.63.39,3.67,2.12,4.29,2.44a.81.81,0,0,1,.26.18,1.77,1.77,0,0,1,.28.27,2.07,2.07,0,0,1,.22.35,1.76,1.76,0,0,1,.17.42,2.4,2.4,0,0,1,.1.48v0A2.46,2.46,0,0,1,363.79,78.42Z" style="fill:#263238"></path><path d="M363.79,78.42v4.74L149.38,207.07v-4.66a6,6,0,0,1,.42-2.15,3.31,3.31,0,0,1,.14-.36,7.37,7.37,0,0,1,.47-.93,7,7,0,0,1,2.44-2.57L360.32,76.49a2.28,2.28,0,0,1,2.65-.1,1.77,1.77,0,0,1,.28.27,2.07,2.07,0,0,1,.22.35,1.76,1.76,0,0,1,.17.42,2.4,2.4,0,0,1,.1.48v0A2.46,2.46,0,0,1,363.79,78.42Z" style="fill:#37474f"></path><path d="M351.91,84.09a3,3,0,0,0-1.13,2.38c0,1,.51,1.45,1.13,1.09A3,3,0,0,0,353,85.17C353,84.21,352.53,83.73,351.91,84.09Z" style="fill:#fafafa"></path><path d="M356,81.74a3,3,0,0,0-1.13,2.39c0,1,.51,1.44,1.13,1.08a3,3,0,0,0,1.13-2.39C357.1,81.86,356.59,81.38,356,81.74Z" style="fill:#fafafa"></path><path d="M360,79.39a3,3,0,0,0-1.13,2.39c0,1,.51,1.44,1.13,1.08a3,3,0,0,0,1.13-2.39C361.16,79.52,360.66,79,360,79.39Z" style="fill:#fafafa"></path><path d="M360.32,76.49,152.85,196.41A7.06,7.06,0,0,0,150.4,199L146,196.43a7.06,7.06,0,0,1,2.42-2.54L355.89,74a2.44,2.44,0,0,1,2.52-.21c.62.38,3.5,2,4.23,2.41A2.5,2.5,0,0,0,360.32,76.49Z" style="fill:#455a64"></path></g></g><polygon points="354.52 116.19 195.99 207.72 195.99 201.76 354.52 110.24 354.52 116.19" style="fill:#00006C"></polygon><polygon points="354.52 217.74 195.99 309.26 195.99 303.31 354.52 211.78 354.52 217.74" style="fill:#00006C"></polygon><polygon points="203.57 219.57 202.69 219.57 202.69 217.13 204.81 215.91 205.25 216.67 203.57 217.64 203.57 219.57" style="fill:#e0e0e0"></polygon><path d="M203.57,279.24h-.88V275h.88Zm0-8.53h-.88v-4.26h.88Zm0-8.52h-.88v-4.26h.88Zm0-8.52h-.88v-4.26h.88Zm0-8.53h-.88v-4.26h.88Zm0-8.52h-.88v-4.26h.88Zm0-8.52h-.88v-4.26h.88Z" style="fill:#e0e0e0"></path><polygon points="202.69 286.45 202.69 283.5 203.57 283.5 203.57 284.93 204.81 284.22 205.25 284.98 202.69 286.45" style="fill:#e0e0e0"></polygon><path d="M209,282.78l-.43-.76,3.79-2.19.44.76Zm7.6-4.38-.44-.76,3.79-2.19.44.76Zm7.59-4.38-.44-.76,3.8-2.19.43.76Zm7.59-4.39-.44-.75,3.8-2.2.44.76Zm7.59-4.38-.44-.76,3.8-2.19.44.76Zm7.59-4.38-.43-.76,3.79-2.19.44.76Zm7.6-4.39-.44-.76,3.79-2.19.44.76Zm7.59-4.38-.44-.76,3.8-2.19.43.76Zm7.59-4.38-.44-.76,3.8-2.19.44.76Zm7.59-4.39-.44-.76,3.8-2.19.44.76ZM285,239l-.43-.76,3.79-2.19.44.76Zm7.6-4.38-.44-.76,3.79-2.19.44.76Zm7.59-4.39-.44-.75,3.8-2.2.43.76Zm7.59-4.38-.44-.76,3.8-2.19.44.76Zm7.59-4.38-.44-.76,3.8-2.19.44.76Zm7.59-4.39-.43-.75,3.79-2.2.44.76Zm7.6-4.38-.44-.76,3.79-2.19.44.76Zm7.59-4.38-.44-.76,3.8-2.19.43.76Z" style="fill:#e0e0e0"></path><polygon points="345.7 203.89 345.26 203.13 346.94 202.16 346.94 200.22 347.82 200.22 347.82 202.66 345.7 203.89" style="fill:#e0e0e0"></polygon><path d="M347.82,196h-.88V191.7h.88Zm0-8.53h-.88v-4.26h.88Zm0-8.52h-.88v-4.26h.88Zm0-8.52h-.88v-4.26h.88Zm0-8.53h-.88V157.6h.88Zm0-8.52h-.88v-4.26h.88Zm0-8.52h-.88v-4.27h.88Z" style="fill:#e0e0e0"></path><polygon points="347.82 136.29 346.94 136.29 346.94 134.86 345.7 135.58 345.26 134.82 347.82 133.34 347.82 136.29" style="fill:#e0e0e0"></polygon><path d="M209,214.48l-.43-.76,3.79-2.19.44.75Zm7.6-4.39-.44-.76,3.79-2.19.44.76Zm7.59-4.38-.44-.76,3.8-2.19.43.76Zm7.59-4.38-.44-.76,3.8-2.19.44.75Zm7.59-4.39-.44-.76,3.8-2.19.44.76Zm7.59-4.38-.43-.76,3.79-2.19.44.76Zm7.6-4.38-.44-.76,3.79-2.19.44.75Zm7.59-4.39-.44-.76,3.8-2.19.43.76Zm7.59-4.38-.44-.76,3.8-2.19.44.76Zm7.59-4.38-.44-.76,3.8-2.19.44.75Zm7.59-4.39-.43-.76,3.79-2.19.44.76Zm7.6-4.38-.44-.76,3.79-2.19.44.76Zm7.59-4.38-.44-.76,3.8-2.19.43.75Zm7.59-4.39-.44-.76,3.8-2.19.44.76Zm7.59-4.38-.44-.76,3.8-2.19.44.76Zm7.59-4.38-.43-.76,3.79-2.19.44.76Zm7.6-4.39-.44-.76,3.79-2.19.44.76Zm7.59-4.38-.44-.76,3.8-2.19.43.76Z" style="fill:#e0e0e0"></path><polygon points="205.48 219.16 200.78 221.87 200.78 215.61 205.48 212.9 205.48 219.16" style="fill:#e0e0e0"></polygon><polygon points="349.73 135.88 345.03 138.59 345.03 132.33 349.73 129.62 349.73 135.88" style="fill:#e0e0e0"></polygon><polygon points="205.48 287.47 200.78 290.18 200.78 283.92 205.48 281.21 205.48 287.47" style="fill:#e0e0e0"></polygon><polygon points="349.73 204.19 345.03 206.9 345.03 200.63 349.73 197.93 349.73 204.19" style="fill:#e0e0e0"></polygon><path d="M214.84,261.37a.6.6,0,0,1-.7,0,.91.91,0,0,1-.29-.76V229.23a2.37,2.37,0,0,1,.29-1.09,2,2,0,0,1,.7-.79l11.73-6.78a9.52,9.52,0,0,1,4.12-1.47,3.72,3.72,0,0,1,2.68.78,4.74,4.74,0,0,1,1.44,2.43,12.54,12.54,0,0,1,.44,3.37,13,13,0,0,1-.24,2.59,16.57,16.57,0,0,1-.57,2.12,10.88,10.88,0,0,1-.67,1.6c-.23.45-.42.79-.56,1a3.16,3.16,0,0,1,2,1.9,10.35,10.35,0,0,1,.57,3.82,20.84,20.84,0,0,1-.44,4.14,17.52,17.52,0,0,1-4,8.1,15.75,15.75,0,0,1-3.93,3.17Zm13.63-31.59a2,2,0,0,0-.57-1.69c-.37-.28-.93-.21-1.66.21l-5.64,3.26v5.54l5.64-3.26a4.14,4.14,0,0,0,1.66-1.71A5,5,0,0,0,228.47,229.78Zm-7.87,20.73,6-3.47a4.57,4.57,0,0,0,1.75-1.86,5.22,5.22,0,0,0,.66-2.49,2,2,0,0,0-.66-1.74c-.44-.31-1-.26-1.75.16l-6,3.47Z" style="fill:#455a64"></path><path d="M250.66,206.67a15.61,15.61,0,0,1,4.3-1.81,5.23,5.23,0,0,1,3.23.18,4,4,0,0,1,2,2.3,12,12,0,0,1,.71,4.52,19.27,19.27,0,0,1-1.13,6.7,18.16,18.16,0,0,1-3.21,5.52l4.52,9a1,1,0,0,1,.11.47,2,2,0,0,1-.23.89,1.51,1.51,0,0,1-.57.64l-5,2.87c-.48.28-.83.33-1,.16a2,2,0,0,1-.5-.59l-4-8.07-3.36,1.94v10.4a2.26,2.26,0,0,1-.29,1.09,1.88,1.88,0,0,1-.69.79l-4.77,2.76a.62.62,0,0,1-.7,0,.91.91,0,0,1-.29-.76V214.25a2.37,2.37,0,0,1,.29-1.09,1.9,1.9,0,0,1,.7-.79Zm-4.12,17.1,4.12-2.38a8.2,8.2,0,0,0,2.54-2.24,5.62,5.62,0,0,0,1-3.4c0-1.36-.34-2.1-1-2.24a3.86,3.86,0,0,0-2.54.69l-4.12,2.38Z" style="fill:#455a64"></path><path d="M278.43,190.63c.49-.28.86-.31,1.12-.1a1.58,1.58,0,0,1,.52.76l7.95,26a2,2,0,0,1,.15.64,1.89,1.89,0,0,1-.24.89,1.51,1.51,0,0,1-.57.64l-4.59,2.66c-.48.28-.83.34-1,.18a1,1,0,0,1-.38-.58l-1-3.44-9.69,5.59-1,4.63a3.59,3.59,0,0,1-.39,1,2.6,2.6,0,0,1-1,1l-4.59,2.65a.46.46,0,0,1-.56,0,.71.71,0,0,1-.24-.61,3.78,3.78,0,0,1,.15-.82l7.94-35.2a6.15,6.15,0,0,1,.53-1.37,2.75,2.75,0,0,1,1.11-1.18Zm-5.9,24.65,5.9-3.41-2.95-10Z" style="fill:#455a64"></path><path d="M307.7,207.75a1,1,0,0,1-1,.14,1.25,1.25,0,0,1-.49-.39l-8.35-11.8v16.42a2.37,2.37,0,0,1-.29,1.09,2,2,0,0,1-.69.79l-4.78,2.76a.58.58,0,0,1-.69,0,.87.87,0,0,1-.29-.75v-31.4a2.28,2.28,0,0,1,.29-1.09,1.88,1.88,0,0,1,.69-.79l3.79-2.19a1,1,0,0,1,1-.14,1.5,1.5,0,0,1,.5.4l8.34,11.8V176.18a2.4,2.4,0,0,1,.29-1.09,2,2,0,0,1,.7-.79l4.77-2.75a.57.57,0,0,1,.69,0,.86.86,0,0,1,.29.75v31.39a2.32,2.32,0,0,1-.29,1.1,1.79,1.79,0,0,1-.69.78Z" style="fill:#455a64"></path><path d="M328.22,161.89a11.75,11.75,0,0,1,4.59-1.66,5.66,5.66,0,0,1,3.59.73,6,6,0,0,1,2.37,2.93,14,14,0,0,1,1,4.91c0,.66,0,1.28,0,1.85v3.23c0,.55,0,1.16,0,1.82a25.86,25.86,0,0,1-3.27,11.65,24,24,0,0,1-3.51,4.82,19.81,19.81,0,0,1-4.56,3.63l-9.84,5.68a.57.57,0,0,1-.69,0,.86.86,0,0,1-.29-.75V169.35a2.32,2.32,0,0,1,.29-1.1,1.79,1.79,0,0,1,.69-.78ZM333,172.5q-.21-5.46-4.95-2.73l-3.72,2.15v18.46l3.9-2.25a9.32,9.32,0,0,0,4.77-8.34c0-.7,0-1.35,0-1.94v-3.48C333,173.79,333,173.16,333,172.5Z" style="fill:#455a64"></path></g></g><g id="freepik--Toolbar--inject-110"><g id="freepik--toolbar--inject-110"><path d="M159.18,214.59V336.87c0,.72.51,1,1.13.65l18.87-10.9a2.47,2.47,0,0,0,1.13-1.95V202.39c0-.71-.5-1-1.13-.65l-18.87,10.9A2.51,2.51,0,0,0,159.18,214.59Z" style="opacity:0.15"></path><path d="M184.29,203.78a.82.82,0,0,0-.8.08l-18.87,10.9a2.47,2.47,0,0,0-1.13,2V339a.79.79,0,0,0,.32.72c.2.13,3.49,2,3.69,2.14a.79.79,0,0,0,.8-.08l18.88-10.9a2.5,2.5,0,0,0,1.13-1.95V206.64a.8.8,0,0,0-.33-.73Z" style="fill:#455a64"></path><path d="M167.18,223.07l.33-5.33-3.69-2.13a2.3,2.3,0,0,0-.33,1.1V339a.79.79,0,0,0,.32.72c.2.13,3.49,2,3.69,2.14a.79.79,0,0,0,.8-.08h0l-1.12-.65Z" style="fill:#37474f"></path><path d="M167.18,218.84V341.12c0,.72.5,1,1.12.65l18.88-10.9a2.5,2.5,0,0,0,1.13-1.95V206.64c0-.72-.51-1-1.13-.65l-18.88,10.9A2.49,2.49,0,0,0,167.18,218.84Z" style="fill:#455a64"></path><path d="M187.18,206l-18.88,10.9a2.49,2.49,0,0,0-1.12,2v4.23l21.13-12.2v-4.23C188.31,205.92,187.8,205.63,187.18,206Z" style="fill:#37474f"></path><g style="opacity:0.2"><path d="M170.27,226.5l5.3-3.06c.39-.23.71,0,.72.41V230a1.58,1.58,0,0,1-.72,1.24l-5.3,3.06c-.4.23-.72,0-.72-.41v-6.12A1.57,1.57,0,0,1,170.27,226.5Z" style="fill:#fff"></path><path d="M179.91,220.93l5.3-3.05c.39-.23.72,0,.72.41v6.12a1.57,1.57,0,0,1-.72,1.24l-5.3,3.06a.44.44,0,0,1-.72-.41v-6.12A1.62,1.62,0,0,1,179.91,220.93Z" style="fill:#fff"></path><path d="M170.27,237.42l5.3-3.06c.39-.23.71,0,.72.41v6.12a1.58,1.58,0,0,1-.72,1.24l-5.3,3.06c-.4.23-.72.05-.72-.41v-6.12A1.57,1.57,0,0,1,170.27,237.42Z" style="fill:#fff"></path><path d="M179.91,231.85l5.3-3c.39-.23.72-.05.72.41v6.12a1.57,1.57,0,0,1-.72,1.24l-5.3,3.06a.44.44,0,0,1-.72-.41V233.1A1.62,1.62,0,0,1,179.91,231.85Z" style="fill:#fff"></path><path d="M170.27,248.34l5.3-3.06c.39-.23.71,0,.72.41v6.12a1.6,1.6,0,0,1-.72,1.24l-5.3,3.06c-.4.23-.72.05-.72-.41v-6.12A1.57,1.57,0,0,1,170.27,248.34Z" style="fill:#fff"></path><path d="M179.91,242.77l5.3-3.06c.39-.22.72,0,.72.42v6.12a1.59,1.59,0,0,1-.72,1.24l-5.3,3.06a.44.44,0,0,1-.72-.41V244A1.62,1.62,0,0,1,179.91,242.77Z" style="fill:#fff"></path><path d="M170.27,259.26l5.3-3.06c.39-.23.71-.05.72.41v6.12a1.6,1.6,0,0,1-.72,1.24l-5.3,3.06c-.4.23-.72.05-.72-.41V260.5A1.57,1.57,0,0,1,170.27,259.26Z" style="fill:#fff"></path><path d="M179.91,253.69l5.3-3.06c.39-.22.72,0,.72.42v6.12a1.59,1.59,0,0,1-.72,1.24l-5.3,3.06a.44.44,0,0,1-.72-.41v-6.12A1.62,1.62,0,0,1,179.91,253.69Z" style="fill:#fff"></path><path d="M170.27,270.18l5.3-3.06c.39-.23.71-.05.72.41v6.12a1.6,1.6,0,0,1-.72,1.24l-5.3,3.06c-.4.23-.72.05-.72-.41v-6.12A1.57,1.57,0,0,1,170.27,270.18Z" style="fill:#fff"></path><path d="M179.91,264.61l5.3-3.06c.39-.22.72,0,.72.42v6.12a1.59,1.59,0,0,1-.72,1.24l-5.3,3.06c-.39.23-.72,0-.72-.42v-6.11A1.62,1.62,0,0,1,179.91,264.61Z" style="fill:#fff"></path><path d="M170.27,281.1l5.3-3.06c.39-.23.71-.05.72.41v6.12a1.6,1.6,0,0,1-.72,1.24l-5.3,3.06c-.4.23-.72.05-.72-.41v-6.12A1.56,1.56,0,0,1,170.27,281.1Z" style="fill:#fff"></path><path d="M179.91,275.53l5.3-3.06c.39-.23.72,0,.72.42V279a1.59,1.59,0,0,1-.72,1.24l-5.3,3.06c-.39.23-.72,0-.72-.42v-6.11A1.62,1.62,0,0,1,179.91,275.53Z" style="fill:#fff"></path><path d="M170.27,292l5.3-3.06c.39-.23.71,0,.72.41v6.12a1.6,1.6,0,0,1-.72,1.24l-5.3,3.06c-.4.23-.72,0-.72-.41v-6.12A1.56,1.56,0,0,1,170.27,292Z" style="fill:#fff"></path><path d="M179.91,286.45l5.3-3.06c.39-.23.72,0,.72.42v6.12a1.59,1.59,0,0,1-.72,1.24l-5.3,3.06c-.39.23-.72,0-.72-.42V287.7A1.62,1.62,0,0,1,179.91,286.45Z" style="fill:#fff"></path><path d="M170.27,302.94l5.3-3.06c.39-.23.71-.05.72.41v6.12a1.6,1.6,0,0,1-.72,1.24l-5.3,3.06c-.4.23-.72.05-.72-.41v-6.12A1.56,1.56,0,0,1,170.27,302.94Z" style="fill:#fff"></path><path d="M179.91,297.37l5.3-3.06c.39-.23.72,0,.72.42v6.11a1.59,1.59,0,0,1-.72,1.25l-5.3,3.06c-.39.23-.72,0-.72-.42v-6.12A1.61,1.61,0,0,1,179.91,297.37Z" style="fill:#fff"></path></g><path d="M170.16,316.49l8.89-5.13c.67-.39,1.21-.07,1.21.69v10.27a2.67,2.67,0,0,1-1.21,2.09l-8.89,5.13c-.66.38-1.2.07-1.2-.69V318.58A2.68,2.68,0,0,1,170.16,316.49Z" style="fill:#fafafa"></path><path d="M184.65,318.5v8.42a1.05,1.05,0,0,1-.28.48l-7.29,4.22V323.2a1,1,0,0,1,.27-.48l7.29-4.22m1.2-2.7a1.16,1.16,0,0,0-.54.17l-8.88,5.13a2.67,2.67,0,0,0-1.21,2.09v10.27c0,.54.27.86.67.86a1.16,1.16,0,0,0,.54-.17l8.89-5.13a2.68,2.68,0,0,0,1.2-2.09V316.66c0-.54-.27-.86-.67-.86Z" style="fill:#263238"></path></g></g><g id="freepik--Menu--inject-110"><g id="freepik--files-menu--inject-110"><g id="freepik--window--inject-110"><path id="freepik--outline--inject-110" d="M173,38.15a2.76,2.76,0,0,0-1.38.42L118.25,69.33a6.81,6.81,0,0,0-3.08,5.34v65.46c0,1.55.86,2.87,2.07,2.87a2,2,0,0,0,1-.3l53.37-30.81a6.81,6.81,0,0,0,3.08-5.33V40.34c0-1.39-.69-2.19-1.7-2.19Z" style="opacity:0.15"></path><g id="freepik--window--inject-110"><path d="M178.29,41.79c.55.34,3.12,1.8,3.76,2.13a1.7,1.7,0,0,0-.69-.15,2.78,2.78,0,0,0-1.38.43L126.61,75a6.79,6.79,0,0,0-3.08,5.33v65.47a3.55,3.55,0,0,0,0,.46c0,.13,0,.26.07.38a2.22,2.22,0,0,0,.09.37,2.44,2.44,0,0,0,.32.67l.14.22a1.43,1.43,0,0,0,.23.26s0,0,0,0,.15.12.23.19l-.1-.07-3.68-2.08a3,3,0,0,1-1.3-2.67V78.06a6.38,6.38,0,0,1,.93-3.08,6.22,6.22,0,0,1,2.15-2.25L176,42A2.21,2.21,0,0,1,178.29,41.79Z" style="fill:#263238"></path></g><path id="freepik--outline--inject-110" d="M181.35,43.78a2.73,2.73,0,0,0-1.37.42L126.61,75a6.82,6.82,0,0,0-3.08,5.34v65.46c0,1.55.86,2.87,2.06,2.87a2.06,2.06,0,0,0,1-.29L180,117.52a6.81,6.81,0,0,0,3.08-5.33V46c0-1.4-.69-2.2-1.71-2.2Z" style="fill:#455a64"></path><path id="freepik--outline--inject-110" d="M124.44,148.16l.13.12.1.07C124.59,148.28,124.51,148.23,124.44,148.16Z" style="fill:#455a64"></path><g id="freepik--up-bar--inject-110"><path d="M169.57,53.19a3.49,3.49,0,0,0-1.32,2.8c0,1.12.59,1.69,1.32,1.27a3.48,3.48,0,0,0,1.32-2.8C170.89,53.34,170.3,52.77,169.57,53.19Z" style="fill:#37474f"></path><path d="M174.32,50.44a3.51,3.51,0,0,0-1.32,2.8c0,1.12.59,1.69,1.32,1.27a3.48,3.48,0,0,0,1.32-2.8C175.64,50.59,175.05,50,174.32,50.44Z" style="fill:#37474f"></path><path d="M179.07,47.69a3.51,3.51,0,0,0-1.32,2.8c0,1.12.59,1.69,1.32,1.27A3.47,3.47,0,0,0,180.39,49C180.39,47.84,179.8,47.27,179.07,47.69Z" style="fill:#37474f"></path><path d="M180,44.2,126.61,75a6.47,6.47,0,0,0-2.17,2.29L120.53,75a6.19,6.19,0,0,1,2.14-2.25L176,42a2.17,2.17,0,0,1,2.24-.18c.56.34,3.11,1.79,3.76,2.14A2.21,2.21,0,0,0,180,44.2Z" style="fill:#37474f"></path></g></g><path d="M123,90.57a.25.25,0,0,1-.22-.12.26.26,0,0,1,.09-.36l4.59-2.74V82.73a.28.28,0,0,1,.13-.23l12.63-7.29a.3.3,0,0,1,.26,0,.28.28,0,0,1,.13.23v4.41l41.7-24.08a.25.25,0,0,1,.35.1.26.26,0,0,1-.09.35L140.5,80.52a.24.24,0,0,1-.26,0,.25.25,0,0,1-.13-.22V75.89l-12.11,7V87.5a.26.26,0,0,1-.13.22l-4.72,2.82A.28.28,0,0,1,123,90.57Z" style="fill:#263238"></path><polygon points="141.28 74.91 153.91 67.62 153.91 71.41 141.28 78.7 141.28 74.91" style="fill:#37474f"></polygon><polygon points="154.68 67.14 167.3 59.85 167.3 63.65 154.68 70.94 154.68 67.14" style="fill:#37474f"></polygon><path d="M127.74,92.45l1.51-.88c.75-.43,1.35-.08,1.35.78V94.1a3,3,0,0,1-1.35,2.33l-1.51.88c-.74.43-1.35.08-1.35-.78V94.78A3,3,0,0,1,127.74,92.45Z" style="fill:#e0e0e0"></path><path d="M127.74,104.52l1.51-.88c.75-.43,1.35-.08,1.35.78v1.75a3,3,0,0,1-1.35,2.33l-1.51.88c-.74.43-1.35.08-1.35-.78v-1.75A3,3,0,0,1,127.74,104.52Z" style="fill:#37474f"></path><path d="M127.74,114.34l1.51-.88c.75-.43,1.35-.08,1.35.78V116a3,3,0,0,1-1.35,2.33l-1.51.88c-.74.43-1.35.08-1.35-.78v-1.75A3,3,0,0,1,127.74,114.34Z" style="fill:#37474f"></path><path d="M127.74,124.16l1.51-.88c.75-.43,1.35-.08,1.35.78v1.75a3,3,0,0,1-1.35,2.33l-1.51.88c-.74.43-1.35.08-1.35-.78v-1.75A3,3,0,0,1,127.74,124.16Z" style="fill:#37474f"></path><path d="M127.74,134l1.51-.88c.75-.43,1.35-.08,1.35.78v1.75a3,3,0,0,1-1.35,2.33l-1.51.88c-.74.43-1.35.08-1.35-.78v-1.75A3,3,0,0,1,127.74,134Z" style="fill:#37474f"></path><path d="M132.94,89.44l10.84-6.25c.49-.29.89,0,.89.52V86.5a2,2,0,0,1-.89,1.55L132.94,94.3c-.49.29-.89.06-.89-.51V91A2,2,0,0,1,132.94,89.44Z" style="fill:#37474f"></path><path d="M148.7,80.35l1.52-.88c.74-.43,1.34-.08,1.34.78V82a3,3,0,0,1-1.34,2.33l-1.52.88c-.74.43-1.34.08-1.34-.78V82.68A3,3,0,0,1,148.7,80.35Z" style="fill:#e0e0e0"></path><path d="M153.91,77.34l10.83-6.25c.5-.29.9-.06.9.51v2.79a2,2,0,0,1-.9,1.56L153.91,82.2c-.5.29-.9.06-.9-.52V78.9A2,2,0,0,1,153.91,77.34Z" style="fill:#37474f"></path><path d="M125.35,103.82a.28.28,0,0,1-.23-.13.26.26,0,0,1,.1-.36l46.6-26.91a.26.26,0,1,1,.26.45l-46.6,26.91A.24.24,0,0,1,125.35,103.82Z" style="fill:#263238"></path><path d="M125.35,113.54a.28.28,0,0,1-.23-.13.26.26,0,0,1,.1-.36l46.6-26.91a.27.27,0,0,1,.36.1.26.26,0,0,1-.1.35l-46.6,26.91A.24.24,0,0,1,125.35,113.54Z" style="fill:#263238"></path><path d="M125.35,123.26a.28.28,0,0,1-.23-.13.27.27,0,0,1,.1-.36l46.6-26.91a.27.27,0,0,1,.36.1.26.26,0,0,1-.1.35l-46.6,26.91A.24.24,0,0,1,125.35,123.26Z" style="fill:#263238"></path><path d="M125.35,133a.28.28,0,0,1-.23-.13.25.25,0,0,1,.1-.35l46.6-26.92a.27.27,0,0,1,.36.1.26.26,0,0,1-.1.35l-46.6,26.91A.24.24,0,0,1,125.35,133Z" style="fill:#263238"></path><path d="M125.35,142.7a.28.28,0,0,1-.23-.13.25.25,0,0,1,.1-.35l46.6-26.92a.27.27,0,0,1,.36.1.26.26,0,0,1-.1.35l-46.6,26.91A.24.24,0,0,1,125.35,142.7Z" style="fill:#263238"></path><path d="M136.07,98.78l3.85-2.22c.25-.14.45,0,.45.26v5.86a1,1,0,0,1-.45.78l-3.85,2.21c-.24.15-.44,0-.44-.26V99.56A1,1,0,0,1,136.07,98.78Z" style="fill:#e0e0e0"></path><path d="M136.07,108.57l3.85-2.22c.25-.14.45,0,.45.26v5.86a1,1,0,0,1-.45.78l-3.85,2.22c-.24.14-.44,0-.44-.26v-5.86A1,1,0,0,1,136.07,108.57Z" style="fill:#e0e0e0"></path><path d="M136.07,118.37l3.85-2.22c.25-.15.45,0,.45.26v5.85a1,1,0,0,1-.45.78l-3.85,2.22c-.24.14-.44,0-.44-.26v-5.86A1,1,0,0,1,136.07,118.37Z" style="fill:#e0e0e0"></path><path d="M136.07,128.16l3.85-2.22c.25-.14.45,0,.45.26v5.86a1,1,0,0,1-.45.77l-3.85,2.22c-.24.14-.44,0-.44-.26v-5.85A1,1,0,0,1,136.07,128.16Z" style="fill:#e0e0e0"></path><g style="opacity:0.2"><path d="M144.58,98.09a.79.79,0,0,1-.68-.39.78.78,0,0,1,.29-1.06l17-9.82a.79.79,0,0,1,1.07.29.78.78,0,0,1-.29,1.06L145,98A.76.76,0,0,1,144.58,98.09Z" style="fill:#fff"></path></g><g style="opacity:0.2"><path d="M144.58,107.81a.79.79,0,0,1-.68-.39.78.78,0,0,1,.29-1.06l12.62-7.29a.78.78,0,1,1,.78,1.34L145,107.7A.76.76,0,0,1,144.58,107.81Z" style="fill:#fff"></path></g><g style="opacity:0.2"><path d="M144.58,117.53a.79.79,0,0,1-.68-.39.78.78,0,0,1,.29-1.06l21-12.15a.78.78,0,1,1,.78,1.34l-21,12.15A.67.67,0,0,1,144.58,117.53Z" style="fill:#fff"></path></g><g style="opacity:0.2"><path d="M144.58,127.25a.79.79,0,0,1-.68-.39.78.78,0,0,1,.29-1.06l8.42-4.86a.77.77,0,0,1,1.06.28.78.78,0,0,1-.29,1.06L145,127.15A.75.75,0,0,1,144.58,127.25Z" style="fill:#fff"></path></g><g id="freepik--scroll-barr--inject-110"><polygon points="179.46 65.26 175.25 67.69 175.25 114.19 179.46 111.76 179.46 65.26" style="fill:#37474f"></polygon><path d="M177.35,67.89a2.77,2.77,0,0,0-1.13,2.21v36.1c0,.86.51,1.26,1.13.9a2.75,2.75,0,0,0,1.14-2.21V68.79C178.49,67.93,178,67.53,177.35,67.89Z" style="fill:#455a64"></path></g></g></g><g id="freepik--Color--inject-110"><g id="freepik--color--inject-110"><path id="freepik--shadow--inject-110" d="M391.87,57.77a1.8,1.8,0,0,0-.9.28l-16.85,9.71a4.51,4.51,0,0,0-2,3.52v71.94a2.58,2.58,0,0,0,.21,1,1.84,1.84,0,0,0,.54.68l.18.09a.49.49,0,0,0,.17.06,1.17,1.17,0,0,0,.26,0h0a1.29,1.29,0,0,0,.64-.2L391,135.17a4.47,4.47,0,0,0,2-3.51V59.22c0-.09,0-.18,0-.25a1.06,1.06,0,0,0,0-.19s0,0,0,0a.78.78,0,0,0-.05-.18,1.23,1.23,0,0,0-.12-.26.34.34,0,0,0-.07-.11s0,0-.06-.07a.8.8,0,0,0-.13-.13v0l-.18-.1a1.15,1.15,0,0,0-.46-.1Z" style="opacity:0.15"></path><g id="freepik--window--inject-110"><path d="M402.07,61.91a1.83,1.83,0,0,0-.91.28L384.32,71.9a4.51,4.51,0,0,0-2,3.52v72a2.4,2.4,0,0,0,.21,1,1.68,1.68,0,0,0,.53.68l.18.1.18.06a1.09,1.09,0,0,0,.26,0h0a1.41,1.41,0,0,0,.65-.19l16.84-9.75a4.5,4.5,0,0,0,2-3.52V63.36a2,2,0,0,0,0-.25.58.58,0,0,0,0-.19s0,0,0,0a.53.53,0,0,0,0-.18,1.23,1.23,0,0,0-.12-.26.36.36,0,0,0-.07-.1.24.24,0,0,0-.06-.08l-.13-.13h0a.59.59,0,0,0-.17-.1,1,1,0,0,0-.46-.11Z" style="fill:#455a64"></path><path d="M402.53,62a1.5,1.5,0,0,0-1.37.18L384.32,71.9a4.11,4.11,0,0,0-1.42,1.5h0l-5.2-3A3.92,3.92,0,0,1,379.1,69L396,59.24a1.43,1.43,0,0,1,1.47-.13C397.79,59.34,402.1,61.79,402.53,62Z" style="fill:#37474f"></path><path d="M391.67,70.48a3,3,0,0,0-1.14,2.43c0,1,.51,1.47,1.14,1.1a3,3,0,0,0,1.15-2.43C392.82,70.61,392.31,70.11,391.67,70.48Z" style="fill:#fafafa"></path><path d="M395.8,68.09a3,3,0,0,0-1.14,2.43c0,1,.51,1.47,1.14,1.1A3,3,0,0,0,397,69.19C397,68.22,396.44,67.72,395.8,68.09Z" style="fill:#fafafa"></path><path d="M399.93,65.7a3,3,0,0,0-1.15,2.43c0,1,.52,1.47,1.15,1.1a3,3,0,0,0,1.15-2.43C401.08,65.83,400.57,65.33,399.93,65.7Z" style="fill:#fafafa"></path><path d="M382.5,148.39a2.57,2.57,0,0,1-.21-1V82.06h0V75.42a4,4,0,0,1,.61-2l-5.21-3a4.19,4.19,0,0,0-.62,2v6.61h0v65.3a2.44,2.44,0,0,0,.24,1.07,1.74,1.74,0,0,0,.62.7s4.66,2.67,4.85,2.79l.25.14A1.76,1.76,0,0,1,382.5,148.39Z" style="fill:#263238"></path></g><ellipse cx="392.74" cy="86.71" rx="8.53" ry="4.83" transform="translate(159.17 414.15) rotate(-66.95)" style="fill:#00006C"></ellipse><path d="M398.3,105.42c0,4.09-2.49,8.84-5.56,10.62s-5.55-.11-5.55-4.2,2.48-8.85,5.55-10.62S398.3,101.33,398.3,105.42Z" style="fill:#00006C"></path><g style="opacity:0.2"><path d="M398.3,105.42c0,4.09-2.49,8.84-5.56,10.62s-5.55-.11-5.55-4.2,2.48-8.85,5.55-10.62S398.3,101.33,398.3,105.42Z"></path></g><ellipse cx="392.74" cy="130.54" rx="8.53" ry="4.83" transform="translate(118.84 440.81) rotate(-66.95)" style="fill:#fafafa"></ellipse></g></g><g id="freepik--Text--inject-110"><g id="freepik--text--inject-110"><path d="M400.72,148.49l-27.69,16a2.06,2.06,0,0,0-.94,1.62V198.9c0,.59.42.84.94.54l27.69-16a2.06,2.06,0,0,0,.93-1.62V149C401.65,148.44,401.23,148.2,400.72,148.49Z" style="opacity:0.15"></path><path d="M405.7,151.52l-27.69,16a2.06,2.06,0,0,0-.94,1.62v32.81a2,2,0,0,0,.94,1.61l3.29,1.87a2.08,2.08,0,0,0,1.88,0l27.69-16a2.06,2.06,0,0,0,.94-1.62V155a2,2,0,0,0-.94-1.61l-3.3-1.87A2.06,2.06,0,0,0,405.7,151.52Z" style="fill:#37474f"></path><path d="M410.87,154.45l-27.69,16a2.07,2.07,0,0,0-.93,1.62v32.81c0,.6.41.84.93.54l27.69-16a2.06,2.06,0,0,0,.94-1.62V155C411.81,154.39,411.39,154.15,410.87,154.45Z" style="fill:#fafafa"></path><path d="M411.29,154.78h0a.33.33,0,0,1,.05.21V187.8a1.63,1.63,0,0,1-.71,1.23L383,205a.34.34,0,0,1-.2.06h0s-.05-.06-.05-.21V172a1.61,1.61,0,0,1,.71-1.22l27.69-16a.36.36,0,0,1,.19-.06m0-.46a.82.82,0,0,0-.42.13l-27.69,16a2.07,2.07,0,0,0-.93,1.62v32.81c0,.43.21.67.51.67a.82.82,0,0,0,.42-.13l27.69-16a2.06,2.06,0,0,0,.94-1.62V155c0-.42-.21-.67-.52-.67Z" style="fill:#37474f"></path><path d="M411.79,154.82c-.07-.47-.45-.64-.92-.37l-27.69,16a1.94,1.94,0,0,0-.66.7l-5.16-3a1.82,1.82,0,0,1,.65-.67l27.69-16a2.06,2.06,0,0,1,1.87,0l3.29,1.87A2,2,0,0,1,411.79,154.82Z" style="fill:#455a64"></path><path d="M405,164.89v8l-.72.4v-2.52c0-1.36-1.11-1.82-2.48-1l-3.39,2v14.44c0,1.57,1,2.29,2.15,1.61l2.13-1.23v.86l-11.55,6.67v-.86l2.13-1.23a5.16,5.16,0,0,0,2.16-4.1V173.42l-3.4,2a5.13,5.13,0,0,0-2.47,3.89v2.53l-.73.43v-8Z" style="fill:#455a64"></path></g></g><g id="freepik--speech-bubble--inject-110"><g id="freepik--speech-bubble--inject-110"><g id="freepik--speech-bubble--inject-110"><path d="M440.5,177.64l-.77-2.4c-.41-2,7.51,2.63,7.92,4.57l-2.55,6.87a1.07,1.07,0,0,1-.43.5c-.56.35-2.62,1.51-2.8,1.62a1.1,1.1,0,0,1-1.63-.6l-3.31-11.35C436.72,175.9,438.55,176.52,440.5,177.64Z" style="fill:#00006C"></path><path d="M440.5,177.64l-.77-2.4c-.41-2,7.51,2.63,7.92,4.57l-2.55,6.87a1.07,1.07,0,0,1-.43.5c-.56.35-2.62,1.51-2.8,1.62a1.1,1.1,0,0,1-1.63-.6l-3.31-11.35C436.72,175.9,438.55,176.52,440.5,177.64Z" style="fill:#fff;opacity:0.2"></path><path d="M430.85,130.81,461,148.18a2.28,2.28,0,0,1,1,1.77v35.69a2.21,2.21,0,0,1-1,1.75l-3,1.7a2.31,2.31,0,0,1-2.05,0L425.82,171.7a2.24,2.24,0,0,1-1-1.76V134.25a2.23,2.23,0,0,1,1-1.76l3-1.69A2.26,2.26,0,0,1,430.85,130.81Z" style="fill:#00006C"></path><path d="M430.85,130.81,461,148.18a2.28,2.28,0,0,1,1,1.77v35.69a2.21,2.21,0,0,1-1,1.75l-3,1.7a2.31,2.31,0,0,1-2.05,0L425.82,171.7a2.24,2.24,0,0,1-1-1.76V134.25a2.23,2.23,0,0,1,1-1.76l3-1.69A2.26,2.26,0,0,1,430.85,130.81Z" style="fill:#fff;opacity:0.2"></path><path d="M425.82,133.66,455.94,151a2.25,2.25,0,0,1,1,1.77v35.69c0,.65-.45.91-1,.59l-11.52-6.65-2.12,5.87a1.1,1.1,0,0,1-2.06-.1l-2.82-9.81-11.6-6.69a2.24,2.24,0,0,1-1-1.76V134.25C424.8,133.6,425.26,133.33,425.82,133.66Z" style="fill:#00006C"></path><path d="M425.82,133.66,455.94,151a2.25,2.25,0,0,1,1,1.77v35.69c0,.65-.45.91-1,.59l-11.52-6.65-2.12,5.87a1.1,1.1,0,0,1-2.06-.1l-2.82-9.81-11.6-6.69a2.24,2.24,0,0,1-1-1.76V134.25C424.8,133.6,425.26,133.33,425.82,133.66Z" style="fill:#fff;opacity:0.4"></path><g id="freepik--Check--inject-110"><path d="M436.21,171.83l-.3,0a2.21,2.21,0,0,1-1.72-1.26l-3.6-7.59a2.24,2.24,0,1,1,4.05-1.9l2.13,4.45,10.29-12a2.24,2.24,0,1,1,3.4,2.92l-12.55,14.61A2.27,2.27,0,0,1,436.21,171.83Z" style="fill:#fafafa"></path></g></g><path d="M424.82,134.06c.08-.51.5-.69,1-.4L455.94,151a2.14,2.14,0,0,1,.72.77l5-2.89a2,2,0,0,0-.7-.73l-30.12-17.37a2.26,2.26,0,0,0-2,0l-3,1.69A2.24,2.24,0,0,0,424.82,134.06Z" style="fill:#fff;opacity:0.7000000000000001"></path></g></g><g id="freepik--light-bulb--inject-110"><g id="freepik--Bulb--inject-110"><g id="freepik--bulb--inject-110"><g id="freepik--Socket--inject-110"><path d="M74.44,183.6c-1.55-.53-1.8-1.83-.56-2.9a5.65,5.65,0,0,1,5-1c1.54.53,1.79,1.83.56,2.9A5.65,5.65,0,0,1,74.44,183.6Z" style="fill:#263238"></path><path d="M80.15,181.69l-.57.12a1.78,1.78,0,0,0-.88-.59,4.58,4.58,0,0,0-4.09.78,1.74,1.74,0,0,0-.59.88l-.58.11.86.92h0a1.92,1.92,0,0,0,.76.45,4.6,4.6,0,0,0,4.08-.79,1.89,1.89,0,0,0,.54-.7h0Z" style="fill:#263238"></path><path d="M73.05,182.9c-2.27-.8-2.64-2.72-.81-4.29a8.36,8.36,0,0,1,7.43-1.41c2.27.79,2.64,2.71.81,4.29A8.38,8.38,0,0,1,73.05,182.9Z" style="fill:#455a64"></path><path d="M72.78,182.23c-2.36-.82-2.74-2.82-.84-4.45a8.64,8.64,0,0,1,7.7-1.46c2.37.82,2.74,2.82.85,4.45A8.67,8.67,0,0,1,72.78,182.23Z" style="fill:#37474f"></path><path d="M72.54,181.47c-2.42-.84-2.81-2.88-.87-4.56a8.92,8.92,0,0,1,7.9-1.5c2.42.85,2.81,2.89.87,4.56A8.85,8.85,0,0,1,72.54,181.47Z" style="fill:#455a64"></path><path d="M72.29,180.72c-2.48-.87-2.87-3-.88-4.68a9.1,9.1,0,0,1,8.09-1.53c2.48.86,2.88,3,.89,4.67A9.12,9.12,0,0,1,72.29,180.72Z" style="fill:#37474f"></path><ellipse cx="75.74" cy="176.78" rx="5.97" ry="3.44" transform="translate(-31.65 17.23) rotate(-10.75)" style="fill:#455a64"></ellipse><path d="M71.81,179.21c-2.6-.91-3-3.11-.94-4.9a9.54,9.54,0,0,1,8.49-1.61c2.6.9,3,3.1.93,4.89A9.56,9.56,0,0,1,71.81,179.21Z" style="fill:#37474f"></path></g><path d="M81.27,171.66a3.17,3.17,0,0,0-2.33-2.21,10,10,0,0,0-8.87,1.68A3.18,3.18,0,0,0,68.71,174l.41,2.14a3.17,3.17,0,0,0,2.33,2.21,10,10,0,0,0,8.88-1.68,3.21,3.21,0,0,0,1.35-2.92Z" style="fill:#00006C"></path><path d="M66.85,130a19.22,19.22,0,0,0-15.29,22.46c2.84,15,15.68,15.14,16.83,21.18a3.3,3.3,0,0,0,2.42,2.3A10.39,10.39,0,0,0,80,174.18a3.31,3.31,0,0,0,1.4-3h0c-1.15-6,10.75-10.88,7.9-25.87A19.22,19.22,0,0,0,66.85,130Z" style="fill:#00006C"></path><path d="M66.85,130a19.22,19.22,0,0,0-15.29,22.46c2.84,15,15.68,15.14,16.83,21.18a3.3,3.3,0,0,0,2.42,2.3A10.39,10.39,0,0,0,80,174.18a3.31,3.31,0,0,0,1.4-3h0c-1.15-6,10.75-10.88,7.9-25.87A19.22,19.22,0,0,0,66.85,130Z" style="fill:#fff;mix-blend-mode:screen;opacity:0.7000000000000001"></path><path d="M71.48,175.38c-2.36-.82-2.74-2.82-.84-4.45a8.64,8.64,0,0,1,7.7-1.46c2.36.82,2.74,2.81.85,4.45A8.7,8.7,0,0,1,71.48,175.38Z" style="fill:#00006C"></path><path d="M71.48,175.38c-2.36-.82-2.74-2.82-.84-4.45a8.64,8.64,0,0,1,7.7-1.46c2.36.82,2.74,2.81.85,4.45A8.7,8.7,0,0,1,71.48,175.38Z" style="fill:#fff;opacity:0.55"></path><path d="M80,173a4.15,4.15,0,0,1-.78.88,8.7,8.7,0,0,1-7.71,1.46,4,4,0,0,1-1-.53,4,4,0,0,1,.79-.88,8.64,8.64,0,0,1,7.7-1.46A3.82,3.82,0,0,1,80,173Z" style="fill:#00006C;opacity:0.25"></path><path d="M80,173a4.15,4.15,0,0,1-.78.88,8.7,8.7,0,0,1-7.71,1.46,4,4,0,0,1-1-.53,4,4,0,0,1,.79-.88,8.64,8.64,0,0,1,7.7-1.46A3.82,3.82,0,0,1,80,173Z" style="fill:#00006C"></path><path d="M80,173a4.15,4.15,0,0,1-.78.88,8.7,8.7,0,0,1-7.71,1.46,4,4,0,0,1-1-.53,4,4,0,0,1,.79-.88,8.64,8.64,0,0,1,7.7-1.46A3.82,3.82,0,0,1,80,173Z" style="fill:#fff;opacity:0.35000000000000003"></path><path d="M82.26,137.1c-1.51-1.57-3.64-2.68-5.67-1.32a3.61,3.61,0,0,0-.59.52,2.85,2.85,0,0,0-.43,2.75c.62,1.78,2.59,2.58,3.88,3.81a16.52,16.52,0,0,1,3.44,4.68,9.62,9.62,0,0,0,1,1.84,1.5,1.5,0,0,0,2,.27,2.8,2.8,0,0,0,.83-2.25A14.7,14.7,0,0,0,82.26,137.1Zm3,13.94A1.58,1.58,0,0,0,84,152.41a2.13,2.13,0,0,0,.52,1.65,1.23,1.23,0,0,0,1.73.06,2,2,0,0,0,.58-1.8A1.5,1.5,0,0,0,85.28,151Z" style="fill:#fff;opacity:0.45"></path><path d="M77.48,173.89l-.22,0c-1.28-6.72-1.69-11-1.37-14.33a13.46,13.46,0,0,1,.47-2.53,11.86,11.86,0,0,1-4.69-1.69,11.73,11.73,0,0,1-3.74,3.29,13.05,13.05,0,0,1,1.37,2.18c1.51,3,2.7,7.12,4,13.84l-.22,0c-1.27-6.7-2.46-10.82-4-13.78a12.16,12.16,0,0,0-1.38-2.17c-.2.09-.4.18-.6.25-2.12.79-3.52.4-4.13-.23a1.49,1.49,0,0,1,1.13-2.5c1,0,2.33.56,3.67,2.19a11.53,11.53,0,0,0,3.7-3.23,5.2,5.2,0,0,1-.77-.63,3.73,3.73,0,0,1-1.26-3.55,1.54,1.54,0,0,1,2.7-.51,3.74,3.74,0,0,1,.13,3.77,5.58,5.58,0,0,1-.49.86,11.54,11.54,0,0,0,4.63,1.65c.65-2,1.69-3.06,2.61-3.39a1.47,1.47,0,0,1,1.62.31,1.44,1.44,0,0,1,.34,1.61c-.33.8-1.49,1.68-3.75,1.73a4.75,4.75,0,0,1-.65,0,13.36,13.36,0,0,0-.49,2.53C75.8,162.92,76.2,167.19,77.48,173.89Zm-.82-17c.2,0,.4,0,.58,0,2.16,0,3.25-.85,3.56-1.59a1.25,1.25,0,0,0-.3-1.38,1.26,1.26,0,0,0-1.38-.25C78.29,154,77.3,155,76.66,156.87Zm-12.8-.32a1.19,1.19,0,0,0-.93.71,1.22,1.22,0,0,0,.23,1.39c.55.57,1.86.92,3.89.18l.53-.23c-1.29-1.55-2.58-2.12-3.46-2.08A1.09,1.09,0,0,0,63.86,156.55Zm6.83-6.33a1.29,1.29,0,0,0-1,.93,3.64,3.64,0,0,0,1.21,3.33,5.33,5.33,0,0,0,.74.6,4.68,4.68,0,0,0,.46-.83,3.63,3.63,0,0,0-.09-3.54A1.31,1.31,0,0,0,70.69,150.22Z" style="fill:#455a64"></path></g><path d="M65.55,125.9a.57.57,0,0,1-.68-.44l-1.22-5.62a.58.58,0,0,1,1.14-.25L66,125.22A.57.57,0,0,1,65.55,125.9Z" style="fill:#e0e0e0"></path><path d="M78.14,126.57a.51.51,0,0,1-.3,0,.56.56,0,0,1-.37-.72l1.76-5.48A.58.58,0,0,1,80,120a.57.57,0,0,1,.37.72l-1.76,5.48A.6.6,0,0,1,78.14,126.57Z" style="fill:#e0e0e0"></path><path d="M88.71,133.44a.6.6,0,0,1-.56-.18.59.59,0,0,1,0-.82l4.27-3.86a.58.58,0,0,1,.82,0,.59.59,0,0,1,0,.82L89,133.3A.6.6,0,0,1,88.71,133.44Z" style="fill:#e0e0e0"></path><path d="M100,143.46l-5.62,1.21a.59.59,0,0,1-.69-.45.58.58,0,0,1,.45-.68l5.62-1.22a.6.6,0,0,1,.69.45A.58.58,0,0,1,100,143.46Z" style="fill:#e0e0e0"></path><path d="M99.23,159a.61.61,0,0,1-.3,0l-5.47-1.76a.59.59,0,0,1-.38-.73.57.57,0,0,1,.73-.37l5.48,1.76a.58.58,0,0,1,.37.73A.56.56,0,0,1,99.23,159Z" style="fill:#e0e0e0"></path><path d="M48.24,169.86a.56.56,0,0,1-.55-.17.59.59,0,0,1,0-.82L52,165a.58.58,0,0,1,.77.86l-4.26,3.86A.57.57,0,0,1,48.24,169.86Z" style="fill:#e0e0e0"></path><path d="M46.79,154.77,41.17,156a.58.58,0,1,1-.25-1.13l5.63-1.21a.58.58,0,0,1,.24,1.13Z" style="fill:#e0e0e0"></path><path d="M47.45,142.19a.49.49,0,0,1-.29,0l-5.48-1.76a.58.58,0,0,1-.37-.73.57.57,0,0,1,.72-.37l5.48,1.76a.58.58,0,0,1,.37.73A.57.57,0,0,1,47.45,142.19Z" style="fill:#e0e0e0"></path><path d="M54.32,131.62a.59.59,0,0,1-.55-.18l-3.86-4.26a.58.58,0,0,1,0-.82.59.59,0,0,1,.82,0l3.86,4.27a.57.57,0,0,1,0,.81A.5.5,0,0,1,54.32,131.62Z" style="fill:#e0e0e0"></path></g></g><g id="freepik--character-3--inject-110"><g id="freepik--Character--inject-110"><g id="freepik--Bottom--inject-110"><path d="M441.59,362.37c.14,2.65.22,5.41.28,8.05.83,14.82-.3,22.1.43,31.59.14,1.79,1.52,13.84,1.2,17.57-.48,5.61-8,5.53-8.7,2.26s-2.45-17.5-2.63-18.95c-.58-6.07-4-14.71-6.26-26.85-.94-4.13-2.05-8.9-3.18-13.67Z" style="fill:#ffbda7"></path><path d="M391.05,400.2c1.55-1.58,2.51-3,2.25-6.78-.05-.7-1.09-14.87-2.2-31.05h19.46c-.61,8-6.1,32.83-6.16,34.87a4.94,4.94,0,0,0-.11.64c-.06,3.58-4.34,5.47-7.7,7.82a62.48,62.48,0,0,1-9.07,5.48c-2.43,1.13-7.34,1.18-7.93-.3C383.67,408,387.79,403.51,391.05,400.2Z" style="fill:#ffbda7"></path><path d="M372.64,414.66a2.93,2.93,0,0,0,.57,3.1c1.29,1.08,5.09,2.86,10.15,2.3s7.81-2,9.85-3.61,4.9-3.81,7.19-4.26a14.06,14.06,0,0,0,5.12-1.93c.69-.61.63-3.37.63-3.37Z" style="fill:#263238"></path><path d="M404.51,396.23s.38,0,.5.66.29,3,.61,4.23a21.42,21.42,0,0,1,.42,6.72c-.29,1.41-3.76,2.36-6,3.13a28.51,28.51,0,0,0-7.21,4.21,21.57,21.57,0,0,1-10.7,3.65c-5,0-8.27-1.3-9.25-3-1.22-2.13-.84-4.67,5-7.15,1.1-.47,5-2.58,6.28-3.35a29.29,29.29,0,0,0,4-2.73,23,23,0,0,0,1.78-1.64,7.44,7.44,0,0,0,1.48-1.75c.07-.14.12-.31.18-.46a8.21,8.21,0,0,0,.39-1.28,3.14,3.14,0,0,1,.33-1.09c.3-.46.74-.3,1.22-.25a17.38,17.38,0,0,1,3.18.63,8.15,8.15,0,0,1,2.72,1.27,3.33,3.33,0,0,1,.85,2.51c0,.32,0,.64,0,1,0,.14-.06.38.14.33s.41-.53.49-.69c.16-.35.27-.74.45-1.09a5.33,5.33,0,0,1,.73-1.15A5.44,5.44,0,0,1,403,398a9.8,9.8,0,0,0,1-.6A2.2,2.2,0,0,0,404.51,396.23Z" style="fill:#37474f"></path><path d="M376.92,409.07c7.27.55,10.12,6.15,10.4,8.79a17.68,17.68,0,0,1-5.17,1c-5,0-8.48-1.3-9.46-3C371.54,413.8,371.74,410.87,376.92,409.07Z" style="fill:#fafafa"></path><path d="M388.44,410.58a.35.35,0,0,0,.22-.08.32.32,0,0,0,.06-.47c-1-1.19-4.51-4.1-7.16-3.85a.34.34,0,0,0-.32.36.36.36,0,0,0,.39.31c2.47-.23,5.74,2.66,6.53,3.6A.41.41,0,0,0,388.44,410.58Z" style="fill:#f0f0f0"></path><path d="M391.59,408.88a.34.34,0,0,0,.23-.08.32.32,0,0,0,.05-.47c-1-1.18-4.51-4.1-7.16-3.85a.35.35,0,0,0-.32.37.35.35,0,0,0,.39.3c2.47-.23,5.74,2.66,6.54,3.6A.35.35,0,0,0,391.59,408.88Z" style="fill:#f0f0f0"></path><path d="M394.51,406.93a.39.39,0,0,0,.23-.07.33.33,0,0,0,.06-.47c-1-1.19-4.53-4.1-7.16-3.86a.34.34,0,0,0-.32.37.34.34,0,0,0,.39.3c2.46-.22,5.74,2.67,6.53,3.61A.36.36,0,0,0,394.51,406.93Z" style="fill:#f0f0f0"></path><path d="M397.38,405a.41.41,0,0,0,.22-.07.33.33,0,0,0,.07-.48c-1.38-1.68-5.12-4.13-7.77-3.89a.35.35,0,0,0-.32.37.36.36,0,0,0,.39.3c2.38-.22,5.91,2.15,7.13,3.64A.43.43,0,0,0,397.38,405Z" style="fill:#f0f0f0"></path><path d="M432.44,424.39c.2,3.25.73,5.4,1.95,7.31s3.52,2.5,5.84,1.95,5.31-2,6-4.86a16.77,16.77,0,0,0,.53-7.74Z" style="fill:#263238"></path><path d="M442.22,400.85c1,.07,1.24,4.43,1.79,8.8.6,4.69,2.07,6.63,2.6,10.47.61,4.38-.16,6.34-1.78,9s-7.37,5.25-10.2,1.45c-2.31-3.09-2.41-6.53-2.2-10.91a93.08,93.08,0,0,0-.3-11.1c-.19-3.29-1-6.6-.13-7,.07.49.13,1.1.2,1.57a6.91,6.91,0,0,0,.31,1.75c.1.25.31.5.4.11a2.51,2.51,0,0,0,0-.82c-.14-1.21.5-1.31.85-1.4a43.32,43.32,0,0,1,4.44-.6c.73-.05,3.26-.15,3.59.24a2.67,2.67,0,0,1,.32,1.27c.08.66.25,1.15.27.94,0-.47-.06-1.7-.07-2s-.06-.67-.06-1S442.24,401.13,442.22,400.85Z" style="fill:#37474f"></path><path d="M446.88,422.66a10.56,10.56,0,0,1-1.79,6.67c-1.63,2.65-7.84,5.26-10.67,1.46a12,12,0,0,1-2-6.41C434.14,421.46,444.2,420.17,446.88,422.66Z" style="fill:#fafafa"></path><path d="M434.53,419.61a.27.27,0,0,0,.12,0,17.31,17.31,0,0,1,8.79-.81.37.37,0,0,0,.43-.25.34.34,0,0,0-.27-.4,17.66,17.66,0,0,0-9.26.85.33.33,0,0,0-.16.45A.33.33,0,0,0,434.53,419.61Z" style="fill:#f0f0f0"></path><path d="M443.23,415.5a.35.35,0,0,0,.3-.22.34.34,0,0,0-.22-.43c-4.3-1.38-9.07.69-9.25.78a.33.33,0,0,0-.15.45.37.37,0,0,0,.48.15s4.69-2,8.69-.74A.38.38,0,0,0,443.23,415.5Z" style="fill:#f0f0f0"></path><path d="M443.08,412.42a.36.36,0,0,0,.3-.22.33.33,0,0,0-.22-.43,13.26,13.26,0,0,0-9.42.75.34.34,0,0,0-.12.47.38.38,0,0,0,.49.11,12.7,12.7,0,0,1,8.81-.7A.3.3,0,0,0,443.08,412.42Z" style="fill:#f0f0f0"></path><path d="M442.84,409.38a.35.35,0,0,0,.3-.21.34.34,0,0,0-.21-.44c-4.43-1.57-9.3.75-9.48.85a.33.33,0,0,0-.13.46.36.36,0,0,0,.48.13s4.77-2.26,8.88-.81A.3.3,0,0,0,442.84,409.38Z" style="fill:#ebebeb"></path><path d="M431.89,278.68c4.31,7.44,7.51,13.53,7.95,35.66s.38,23.63.47,26.29.64,5.36,2.08,18.51a180.18,180.18,0,0,1,.31,28.22s-1.6,2.9-6.91,3.35c-4.9.42-7.28-1.52-7.28-1.52s-6.72-25.6-8.57-33.52-6.18-27.16-6.18-27.16l-2.6,17.12s1.5,7.25,0,18.78a155.17,155.17,0,0,1-3.41,18.64,38,38,0,0,1-8.79,1.16,15.47,15.47,0,0,1-7-1.69s-3.19-29.54-3.19-42.61-1.73-41.74,2.61-61.09Z" style="fill:#37474f"></path><path d="M413.76,328.51l-4.37-25.13s-9.23-.63-14.35-5.71c2.08,5.4,9.64,9.18,13,9.94l3.91,20.62-.76,17.4Z" style="fill:#263238"></path><path d="M438,343.37c-1.57-5.88-2.27-5.75-2.4-22.1-.15-17.64-2.33-29.11-7.55-39.58l-.69.31a66.35,66.35,0,0,1,6.22,20.58,6.23,6.23,0,0,1-4.85-.38c-2-1.18-3.41-4-4.24-8.24-2-10.29-4.25-13.62-4.34-13.76l-.65.4s2.28,3.39,4.24,13.49c.88,4.56,2.38,7.41,4.58,8.72a5.84,5.84,0,0,0,3,.8,9.85,9.85,0,0,0,2.33-.31,138.59,138.59,0,0,1,1.15,18c.14,16.44.85,16.35,2.43,22.27.29,1.1.58,2.18.85,3.3,1.69,6.93,3.49,26.77,2.55,42.41a6.11,6.11,0,0,0,.8-.54c.87-15.61-.93-35.15-2.6-42C438.58,345.55,438.29,344.47,438,343.37Z" style="fill:#263238"></path><path d="M404,304.77c-.15,1.41-2.92,30.53-2.14,37.6.19,1.68.42,3.24.64,4.75a85.35,85.35,0,0,1,.9,20c-.5,8.78-1.28,12.42-1.38,16.93l.77-.11c.1-4.53.88-8.09,1.38-16.78a85.87,85.87,0,0,0-.91-20.13c-.22-1.5-.45-3.06-.64-4.73-.77-7,2.1-37.1,2.14-37.45Z" style="fill:#263238"></path></g><g id="freepik--Top--inject-110"><path d="M418.86,228A109.63,109.63,0,0,1,421,204.62c.16-.78.3-1.58.49-2.33.52-2.11,1.39-3.88,4-4.26a10.32,10.32,0,0,1,7.37,2.23,11,11,0,0,1,4.07,6.89c.38,2.34,0,4.74.12,7.11.12,2,.53,5.68,3.31,5.36a1.44,1.44,0,0,1-1.06,1.26,4.65,4.65,0,0,1-2.37-.08,30.43,30.43,0,0,1,0,9,17.12,17.12,0,0,1-3.64,8.19,7.67,7.67,0,0,1-1.33,1.28,6.54,6.54,0,0,1-3.41,1.15,8.89,8.89,0,0,1-3.45-.33,9.36,9.36,0,0,1-5-5,13.45,13.45,0,0,1-.91-3.75C419.11,230.26,418.88,229.09,418.86,228Z" style="fill:#263238"></path><path d="M429.59,199.5a7,7,0,0,1,.93,3.13,4.09,4.09,0,0,1-.16,1.44c-.28.89-1.31,2.21-2.32,2.28a3.21,3.21,0,0,1-3-2.1,10.26,10.26,0,0,1-1-5,2,2,0,0,1,.33-1.17,1.7,1.7,0,0,1,.85-.52C427.16,196.92,428.68,198,429.59,199.5Z" style="fill:#00006C"></path><path d="M426.61,200a8.94,8.94,0,0,1,0,.9,5.67,5.67,0,0,1,2.45,2.6c1.7,3.38.86,7.54-.91,10.88s-4.37,6.16-6.45,9.32a43,43,0,0,0-3,5.49c-.14.3-.33.64-.65.67a.9.9,0,0,1-.61-.23c-1.79-1.2-4.21-2.15-5.65-3.75-2-2.16-4-4.35-5.86-6.62q-2.43-2.58-5-5a10,10,0,0,1-2-2.24c-.52-.89-1.09-1.71-1.67-2.57-2.85-4.18-2.29-9.08.72-13,2-2.6,5.49-4.11,8.65-4.75a24,24,0,0,1,5.74-.4C417.61,191.46,426.13,193.6,426.61,200Z" style="fill:#263238"></path><path d="M386.11,242.47c-2.74,3.51-10.57,13.46-10.57,13.46s-10.7-6-14.87-8.43c-4.36-2.52-5.31-3.86-5.73-4.27a19.37,19.37,0,0,0-7.39-4.21L344.29,242c.06.25-.44.48-.72.57-1.83.59-4.8-.12-6.64-.54a26.35,26.35,0,0,0-3.61-.87,3.93,3.93,0,0,0-2.24.43c-.45.26-.78.65-.39,1.17a2.63,2.63,0,0,0,1,.67c.75.38,1.41.72,1.68,1.55a6.4,6.4,0,0,0,.54,1.56c.39.58,1.08.9,1.53,1.45a14.83,14.83,0,0,1,.79,1.6,5.22,5.22,0,0,0,1.79,1.22,16.82,16.82,0,0,0,4.19,1.58,18.53,18.53,0,0,0,5.07.71c1.25,0,3.69,0,5.45,1.28s3.45,2.66,8.52,7c4.17,3.53,6.28,5.49,11.52,8.6,4,2.38,5.34,2.77,10.3-1.12,3.62-2.83,13.95-14.7,13.95-14.7l2-20.72C392.35,234.52,391,236.27,386.11,242.47Z" style="fill:#ffbda7"></path><g id="freepik--Cursor--inject-110"><path d="M352.74,234.26l-20.87-25a1.43,1.43,0,0,0-.38-.34l-5-2.89c-.42-.25-.73.08-.73.9l-.11,50.53c0,.43.06.68.18.74l5,2.9c.17.09.43-.18.73-.82l3.58-7.66,2.05,7.29a.92.92,0,0,0,.4.59c.4.25,4.83,2.8,5,2.91.41.23,1,0,1.6-.66l2.89-3.32a4.3,4.3,0,0,0,1-3.47l-3.94-14.09a2.52,2.52,0,0,1,1.65-2.67l5.85-2.65C352.89,236,353.35,235,352.74,234.26Z" style="fill:#37474f"></path><path d="M330.65,260.35l.11-50.52c0-1.05.5-1.3,1.11-.57l20.87,25c.61.73.15,1.76-1,2.29l-5.85,2.65a2.52,2.52,0,0,0-1.65,2.67L348.15,256a4.3,4.3,0,0,1-1,3.47l-2.89,3.32c-.85,1-1.75,1-2,.05l-3.95-14.08c-.26-.95-.89-.84-1.4.25l-5.29,11.31C331.05,261.36,330.64,261.4,330.65,260.35Z" style="fill:#fafafa"></path><path d="M332,211.48,351.68,235a1.27,1.27,0,0,1-.5.37L345.33,238a3.8,3.8,0,0,0-2.36,4.2l3.94,14.09a3.15,3.15,0,0,1-.78,2.28l-2.86,3.28-3.78-13.5a1.86,1.86,0,0,0-1.78-1.58c-.58,0-1.39.28-2,1.63l-3.74,8,.1-44.94m-.81-2.64c-.28,0-.47.34-.47,1l-.11,50.52c0,.51.09.77.25.77s.4-.28.66-.84L336.85,249c.28-.59.59-.9.86-.9s.42.22.54.65l3.95,14.08c.13.47.41.7.76.7a1.81,1.81,0,0,0,1.25-.75l2.89-3.32a4.3,4.3,0,0,0,1-3.47l-3.94-14.09a2.52,2.52,0,0,1,1.65-2.67l5.85-2.65c1.18-.53,1.64-1.56,1-2.29l-20.87-25a1,1,0,0,0-.64-.42Z" style="fill:#455a64"></path><path d="M342.53,263.35l-4.95-2.84a1.06,1.06,0,0,1-.4-.6l-2-7.29,1.7-3.65c.51-1.08,1.14-1.2,1.4-.26l3.94,14.09A1,1,0,0,0,342.53,263.35Z" style="fill:#263238"></path></g><path d="M375.55,255.93c3.71,2.15,5.27,5.08,5.41,7.68,1.5-5.74-4.5-8.84-4.5-8.84Z" style="fill:#f0997a"></path><path d="M346.12,243.55a12.38,12.38,0,0,0,5.56,4,5.19,5.19,0,0,1-3.51-.71A4.71,4.71,0,0,1,346.12,243.55Z" style="fill:#f0997a"></path><path d="M344.1,238l-2-.5a8.21,8.21,0,0,1-1-.27c-.29-.12-.54-.2-.79.11a1.12,1.12,0,0,0-.19.8,3.28,3.28,0,0,0,1.45,2.27,16.2,16.2,0,0,0,2.46,1.33c.15.08.23.16.25.23l3.26-2.95C346.41,238.63,345.25,238.31,344.1,238Z" style="fill:#ffbda7"></path><path id="freepik--Chest--inject-110" d="M436.31,287.56c2.45-2-1.9-9.19-3.25-19.24-.42-3.1,1.57-10.77,1.57-10.77s-5.74-8.66-3.88-23.7l-8.92-1.67L407.32,232l-8.34,1.4a53.83,53.83,0,0,0-7.72,9.12c-4,5.86-3.67,13.4.69,18.07.06.92-.09,8-.48,11.66-.55,5-3.59,14.84-1.6,15.83C398.39,295.29,424.75,295.13,436.31,287.56Z" style="fill:#00006C"></path><g id="freepik--Head--inject-110"><g id="freepik--head--inject-110"><g id="freepik--head--inject-110"><path d="M423.7,221.38a4.72,4.72,0,0,0,4.22-1.62c2.22-2.44,2.44-4.92,1.41-6.56-.84-1.36-2.93-2.22-4.4-1.29a4.73,4.73,0,0,0-1.81,2.05c-.35.68-.55,1.68-1.47,1.75a1.22,1.22,0,0,1-1.15-.65,1.93,1.93,0,0,1-.17-.79,5.85,5.85,0,0,1,1.09-3.71,23.87,23.87,0,0,1-9.66-5.48,3.84,3.84,0,0,1-1-1.3,7.78,7.78,0,0,0,1.28,3.07c-3.33-.71-5.78-3.64-7.07-6.79a12.3,12.3,0,0,0-4.93,4.85c-1,1.77-1,4.44-1.21,6.45-.78,8.07.3,12.57,2.66,14.75a8.86,8.86,0,0,0,6.3,2.18l-.13,3.75s-8.14,7.86,2.33,7.05a16.58,16.58,0,0,0,11.88-6.75l.12-12.23S422.14,221.09,423.7,221.38Z" style="fill:#ffbda7"></path><path d="M406.38,219.67a2.55,2.55,0,0,0,3.19,1.66,2.51,2.51,0,0,0,1.7-3.14Z" style="fill:#b16668"></path><path d="M411.37,219a2.53,2.53,0,0,1-2.7,2.42A2.58,2.58,0,0,1,411.37,219Z" style="fill:#f0997a"></path><path d="M412,208.42l2.94,1.68a1.64,1.64,0,0,0-.6-2.29A1.72,1.72,0,0,0,412,208.42Z" style="fill:#263238"></path><path d="M400,208.43l3.11-1.37a1.64,1.64,0,0,0-2.2-.88A1.75,1.75,0,0,0,400,208.43Z" style="fill:#263238"></path><path d="M413.4,211.84a1.33,1.33,0,1,1-1.33-1.33A1.33,1.33,0,0,1,413.4,211.84Z" style="fill:#263238"></path><path d="M403.37,210.87a1.33,1.33,0,1,1-1.33-1.33A1.33,1.33,0,0,1,403.37,210.87Z" style="fill:#263238"></path><polygon points="402.71 214.8 406.84 216.56 408.23 207.83 402.71 214.8" style="fill:#f0997a"></polygon></g></g><path d="M407.78,228.29c4.16-.15,9.92-1.69,11.63-6.48-.71,5.19-4.53,6.68-6.87,7.32a20.76,20.76,0,0,1-4.82.81Z" style="fill:#f0997a"></path></g><g id="freepik--Arm--inject-110"><path d="M405.75,252.92c-2.65-1.76-4-2.43-5.19-2.71s-5.49-1.81-7.12-2.13c-1-.21-1.37,1.41,0,2.45a35.12,35.12,0,0,0,4.86,2.35,20.39,20.39,0,0,1,3.53,3.14Z" style="fill:#f0997a"></path><path d="M441.89,241.57c-2.79-5.22-5.58-6.56-11.14-7.72-3.49,6.38-.92,17.16-.92,17.16l3.38,12.92s-15.14-1.47-16.93-2.48-6.67-5.73-8.29-7.14c-2.22-1.91-3.27-1.59-4.34-1.38-3.52.68-4.28,1-5,1.5a1.58,1.58,0,0,0-.63,1.39c-.94.16-2.34.19-2.46,1.71a4.38,4.38,0,0,0,0,1.22,1,1,0,0,0-.6.37c-.74.93.74,3.95,1.63,4.66a3.1,3.1,0,0,0,2.59.33c.95-.17.46-1.1.46-1.1l1.34,0c3,1.88,3.29,5.85,7.14,6.56a27.14,27.14,0,0,1,4.69.68c8.32,2.34,22.12,9.94,29.46,10.23,7.15.29,6.78-3.43,6.7-7.73C448.89,268.94,444.66,246.77,441.89,241.57Z" style="fill:#ffbda7"></path><path d="M432.85,262.48l.36,1.45c3.29.68,7.29,4.72,8.14,6.42A10.48,10.48,0,0,0,432.85,262.48Z" style="fill:#f0997a"></path><path d="M398,255.82l4.17-1-4.11.44A1.66,1.66,0,0,0,398,255.82Z" style="fill:#f0997a"></path><path d="M395.55,258.75l4.81-.83-4.84.28A2.61,2.61,0,0,0,395.55,258.75Z" style="fill:#f0997a"></path><path d="M400,262.3c-.59-.55-.64-.89-.64-.89s-1.17,0-1.69,0a4.74,4.74,0,0,1-.65-.16,1.8,1.8,0,0,1-.73-.4,1.47,1.47,0,0,0,.68.52,2.68,2.68,0,0,0,.73.22l.31.57a1,1,0,0,0-.5.22,1.26,1.26,0,0,0-.39.64,1.45,1.45,0,0,1,.47-.54,1,1,0,0,1,.64-.15,2.12,2.12,0,0,1,1.41.71l1.34,0A9.36,9.36,0,0,1,400,262.3Z" style="fill:#f0997a"></path></g></g></g></g><g id="freepik--character-2--inject-110"><g id="freepik--character--inject-110"><g id="freepik--bottom--inject-110"><path d="M277.73,396l5.77-11.35,11.6,6.79-14.3,16.88s-7.09-.66-8.23-4.36S275.78,397.23,277.73,396Z" style="fill:#ffa8a7"></path><path d="M269.56,400.46a5.89,5.89,0,0,0-1.61,1.76c-.46.69-.32,4-.77,5.61s-.79,2-1.53,3.93c-.83,2.17-2.36,4.15-.63,9.72s4.49,8.22,6.83,9.58a6.09,6.09,0,0,0,2.81.69s3.06-1.16,2.59-3S269.56,400.46,269.56,400.46Z" style="fill:#263238"></path><path d="M283,406.57a6.88,6.88,0,0,1-1.21,1.93,15.3,15.3,0,0,0-2,5.57c-1.8,8.81,1.71,13.29-3,16.6-1.37.86-4.22.62-8.56-4.93-2.21-2.84-3.47-8.67-2.61-11.32s2-4.36,2.6-6.39.27-5.82,1.39-7.57a8.38,8.38,0,0,1,2.75-2.37c.84-.51,2.68-1.18,3.54-1.67s1.33-1,1.88-.42l-1,1.23c-1.54,2.14-1.11,2.45-1.07,3.59a18.18,18.18,0,0,1-.58,3.63c1.1-1.39,1.55-2.6,2.75-2.39s1.35.16,3.07,1.77S283.05,406.06,283,406.57Z" style="fill:#455a64"></path><path d="M268.18,425.74c-2.21-2.84-3.47-8.67-2.61-11.32a25.27,25.27,0,0,1,1-2.56c0,.18-.09.36-.12.52-.05.34-.1.68-.13,1a7.93,7.93,0,0,0,.44,4c.5,1.09,1.65,3.85,3.13,3.91.84,0,1.55-.79,1.87-1.73.14-.39.37-1.46.37-1.46A13.09,13.09,0,0,1,276,419.7c2.15,1.42,2.07,1.74,2.07,1.74a5.9,5.9,0,0,0-.07,1.89,4.78,4.78,0,0,0,.8,1.88,3.12,3.12,0,0,0,.55.44,5.75,5.75,0,0,1-2.61,5C275.37,431.53,272.52,431.29,268.18,425.74Z" style="fill:#37474f"></path><path d="M279.78,414.07a30.64,30.64,0,0,0-.55,7c-.8,2.26-1.51,2.19-1.61,1s1.46-6,2.62-10C280.06,412.76,279.91,413.43,279.78,414.07Z" style="fill:#37474f"></path><path d="M274.42,399.93a4.94,4.94,0,0,1,.86-3.22c.22-.1.41-.2.57-.29.93-.53,1.33-1,1.88-.42l-1,1.23c-1.54,2.14-1.11,2.45-1.07,3.59a18.18,18.18,0,0,1-.58,3.63c-.9,3.82-1.72,5.1-2.14,8.72s.3,6-.21,6.25-1.54-.21-1.73-3.11,1.09-7.76,2-10.07S274.6,401.48,274.42,399.93Z" style="fill:#37474f"></path><path d="M271.89,418.38a.32.32,0,0,0,.18.1,8.63,8.63,0,0,1,5.78,3.39.37.37,0,0,0,.51,0,.36.36,0,0,0,0-.51,9.29,9.29,0,0,0-6.18-3.62.36.36,0,0,0-.43.28A.37.37,0,0,0,271.89,418.38Z" style="fill:#ebebeb"></path><path d="M272.35,415.37a.45.45,0,0,0,.18.1,9.69,9.69,0,0,1,6.08,3.69.36.36,0,0,0,.53,0,.37.37,0,0,0,0-.52,10.38,10.38,0,0,0-6.49-3.93.36.36,0,0,0-.44.27A.37.37,0,0,0,272.35,415.37Z" style="fill:#ebebeb"></path><path d="M272.28,412.05a.43.43,0,0,0,.2.11,11,11,0,0,1,6.8,4.15.41.41,0,0,0,.58,0,.4.4,0,0,0,0-.57,11.77,11.77,0,0,0-7.23-4.42.41.41,0,0,0-.49.31A.4.4,0,0,0,272.28,412.05Z" style="fill:#ebebeb"></path><path d="M272.76,409.21a.49.49,0,0,0,.2.11,10.71,10.71,0,0,1,6.65,4.06.4.4,0,1,0,.61-.53,11.52,11.52,0,0,0-7.08-4.31.4.4,0,0,0-.38.67Z" style="fill:#ebebeb"></path><path d="M273.8,406.45a.49.49,0,0,0,.2.11,10.74,10.74,0,0,1,6.65,4.05.41.41,0,0,0,.57.05.42.42,0,0,0,0-.57,11.52,11.52,0,0,0-7.08-4.31.39.39,0,0,0-.48.3A.4.4,0,0,0,273.8,406.45Z" style="fill:#ebebeb"></path><polygon points="280.86 396.91 288.38 403.05 292.62 405.72 287.77 414.89 274.11 408.35 280.86 396.91" style="fill:#ffa8a7"></polygon><path d="M265.56,355.9s27.34-4.53,39-4.46c11.93.08,13,9,10,14.53-5.72,10.51-25.6,32.81-25.6,32.81s-6.68-3.06-8.73-8.84l4.53-10.4-14.27,4.56-7.29-4.89-.6-3.72Z" style="fill:#00006C"></path><path d="M265.56,355.9s27.34-4.53,39-4.46c11.93.08,13,9,10,14.53-5.72,10.51-25.6,32.81-25.6,32.81s-6.68-3.06-8.73-8.84l4.53-10.4-14.27,4.56-7.29-4.89-.6-3.72Z" style="opacity:0.4"></path><path d="M265.56,355.9l-47.33,7.88s-.46,11.33,4,21.48a23.17,23.17,0,0,0,17.71,13.52,132.2,132.2,0,0,0,14.31,1.16,36.17,36.17,0,0,0,7.48,4.4c3.77,1.5,20.25,8.4,20.25,8.4s4.63-3.92,4.17-12.08L270.58,384.1c-3.52-4.29-4.76-5.68-6.72-6.65C266.87,371.65,265.89,362.29,265.56,355.9Z" style="fill:#00006C"></path><path d="M265.56,355.9l-47.33,7.88s-.46,11.33,4,21.48a23.17,23.17,0,0,0,17.71,13.52,132.2,132.2,0,0,0,14.31,1.16,36.17,36.17,0,0,0,7.48,4.4c3.77,1.5,20.25,8.4,20.25,8.4s4.63-3.92,4.17-12.08L270.58,384.1c-3.52-4.29-4.76-5.68-6.72-6.65C266.87,371.65,265.89,362.29,265.56,355.9Z" style="opacity:0.30000000000000004"></path><g style="opacity:0.30000000000000004"><path d="M287.23,370.68a100.5,100.5,0,0,0-6,10l3.64-1.16c4.11-9.8,5-12.65,11.52-17.24C296.37,362.3,291.66,364.07,287.23,370.68Z"></path><path d="M250.75,394.45s-.05,2.4,3.49,5.49a36.17,36.17,0,0,0,7.48,4.4c3.77,1.5,20.25,8.4,20.25,8.4s.9-.41,2.18-2.84c-4.26-1-18.3-6.5-22.83-8.42C253.25,398.06,250.75,394.45,250.75,394.45Z"></path><path d="M268.22,381.33l2.36,2.77,2.28-.75s-4.05-4.4-6.66-6.72a8.64,8.64,0,0,0-1.5-1.18C266,372,266,366.31,266,366.31a18.36,18.36,0,0,1-3.45,8.31,15.07,15.07,0,0,0-6.57-.07c-4.58.76-17.85,3-17.85,3s12.72-1.15,19.34-1.4S266.63,379.46,268.22,381.33Z"></path></g><path d="M309.85,410.49c3.21,1.27,5.2,2.55,6.68,4.49s1.94,3.91.53,6.26-4,5.11-7.08,4.93a16.73,16.73,0,0,1-7.83-2.49Z" style="fill:#263238"></path><path d="M284.15,413.21c0,1,4,2.89,8.24,4.9,4.52,2.16,5.63,3.56,9.32,5.38,4.22,2.08,5.82,2.2,9.1,1.29s7.31-5.6,4.5-9.91c-2.3-3.51-5.27-4.48-9.78-5.66A85.94,85.94,0,0,1,295,405.8c-3.26-1.26-5.94-3.54-6.61-2.75.46.23,3.87,2.33,3.22,2.9-.15.3-.64.2-1.48-.14a1.41,1.41,0,0,0-1.17-.06,2.28,2.28,0,0,0-.84,1,25.33,25.33,0,0,0-1,2.59c-.25.59-.15.25-.38.85a6.49,6.49,0,0,0-.7,2.31c0,.37.31.49.6.67s.69.4,1,.61c.1.08.3.36.24.5s-.69.12-.94,0-.65-.2-.95-.31S284.89,413.56,284.15,413.21Z" style="fill:#455a64"></path><path d="M300.26,422.79c.61.31,4.44,2.09,5.64,1s-1.77-3-1.77-3-.47-2.89,3-7.14c.6.47,3.12.45,3.09-1s-4.26-3.3-4.32-3.33c4.32,1.16,7.16,2.15,9.39,5.56,2.81,4.31-1.23,9-4.5,9.91s-4.88.79-9.1-1.29C301.29,423.28,300.64,423,300.26,422.79Z" style="fill:#37474f"></path><path d="M304.54,420.52c1.6.54.51,2-1.83,1.52-3.51-.71-6.42-2.7-10.32-3.93-4.22-2-8.52-3.89-8.25-4.95.76.28,2.37.95,2.37.95.32.14,1.14.44,1.14.44,3.19,1.38,6.73,3.6,10.19,4.54C300.89,419.92,303,420,304.54,420.52Z" style="fill:#37474f"></path><path d="M306.92,414.22c-1.46-.84-1.72-1.57-4.59-2.88s-7.71-4.14-10.7-5.88a37.48,37.48,0,0,1-3.25-2.41c.49-.56,2.32,0,4.15,1.11s2.94,1.89,4.75,2.83c3.52,2.11,7.53,3.54,9.54,4.83S308.38,415.07,306.92,414.22Z" style="fill:#37474f"></path><path d="M307.13,413.83a.35.35,0,0,1-.08.13,12.78,12.78,0,0,0-2.74,7.08.41.41,0,0,1-.4.39.34.34,0,0,1-.32-.4,13.43,13.43,0,0,1,3-7.62.33.33,0,0,1,.51,0A.39.39,0,0,1,307.13,413.83Z" style="fill:#f0f0f0"></path><path d="M304.3,411.76a.25.25,0,0,1-.08.12,17.49,17.49,0,0,0-3.38,8.35.42.42,0,0,1-.41.39.35.35,0,0,1-.31-.42,18,18,0,0,1,3.6-8.85.35.35,0,0,1,.52,0A.41.41,0,0,1,304.3,411.76Z" style="fill:#f0f0f0"></path><path d="M298.05,419.94a.41.41,0,0,1-.34.25.35.35,0,0,1-.35-.38c.17-5.12,3.47-9.93,3.63-10.09a.33.33,0,0,1,.51,0,.45.45,0,0,1,0,.57s-3.23,4.73-3.38,9.5A.35.35,0,0,1,298.05,419.94Z" style="fill:#f0f0f0"></path><path d="M295.43,418.26a.44.44,0,0,1-.33.26.36.36,0,0,1-.36-.38,15.14,15.14,0,0,1,3.82-9.58.34.34,0,0,1,.51,0,.43.43,0,0,1-.06.57,14.46,14.46,0,0,0-3.54,8.94A.33.33,0,0,1,295.43,418.26Z" style="fill:#f0f0f0"></path><path d="M292,416.83a.41.41,0,0,1-.32.25.35.35,0,0,1-.37-.37c0-5.33,3.77-9.45,3.94-9.62a.34.34,0,0,1,.51,0,.43.43,0,0,1-.05.57s-3.65,4-3.67,9A.41.41,0,0,1,292,416.83Z" style="fill:#ebebeb"></path></g><g id="freepik--top--inject-110"><g id="freepik--arm--inject-110"><path d="M266.16,315.59c2.25,3.37,10.84,15.1,10.84,15.1s5.55-4,9.37-7.19,6.24-4.74,8-11.08a19.29,19.29,0,0,1,2.24-4.35,13.78,13.78,0,0,0,1.67-4.69c.09-.81,2.17-.58,2.55,2,.26,1.35-.18,2.69-.18,4,0,.4-.23,1.27.28,1.19,3.1-.44,5.38-4,9.09-6.45,1.34-.9,4.76-1.83,5.49.11.06.47-.28.8-.41,1.22a.49.49,0,0,0,0,.17,2.78,2.78,0,0,0,.06.58c.09.39.25.76.33,1.16a2.81,2.81,0,0,1-.21,1.76,6.87,6.87,0,0,0-.61,1.25,4.49,4.49,0,0,1-.33,2.43,9,9,0,0,1-1.18,1.88,6.92,6.92,0,0,0-.62,1.32,7.92,7.92,0,0,1-1.51,2,31.57,31.57,0,0,1-6.74,5.64c-1.15.67-2.36,1.22-3.44,2a9.81,9.81,0,0,0-2.14,2,60.42,60.42,0,0,0-4.16,5A137.69,137.69,0,0,1,283.15,347c-4.73,5.19-7.49,3.14-14.15-3.28-8.19-7.89-12.58-12.43-12.58-12.43l-2-26.18C259.28,306.77,263.9,312.22,266.16,315.59Z" style="fill:#ffa8a7"></path><path d="M300.56,312.87a8.82,8.82,0,0,1-2.29,7.6C301.1,319.7,302.24,316.05,300.56,312.87Z" style="fill:#f28f8f"></path><path d="M251.94,304.34c4.55.77,8.09,2.57,13.81,10.14S277,330.29,277,330.29l5.41-3.63c-1.46.84-.24,6.64,2.11,9.55a11.1,11.1,0,0,0,5.29,3.68,40.16,40.16,0,0,1-5.35,6.7c-2.9,2.7-4.22,3.67-6.22,3.67s-4.21-1.15-9.44-6.12-13.53-12.92-13.53-12.92Z" style="fill:#455a64"></path><path d="M277,330.29c-2.43,2.69-4.15,7.38-4,9.8-1-2.83,0-7.65,3.08-11.12Z" style="fill:#37474f"></path><path d="M287.28,343.32a8.94,8.94,0,0,1-1.67-.51,9.55,9.55,0,0,1-3-1.95,10.29,10.29,0,0,1-3-5.94c0-.11-.14-.08-.14,0a9.56,9.56,0,0,0,3,6.48,10.11,10.11,0,0,0,3.15,2,9.37,9.37,0,0,0,1.36.44l.38-.49Z" style="fill:#37474f"></path></g><g id="freepik--chest--inject-110"><path d="M259.63,320.86c-.63-12.71-3.51-16.22-9.95-16.93L239,302.81c-3.16.64-14,4.1-17.68,5.37C219,309,218,314,217.49,321.84c-.41,6.37-.48,11.7-.27,20.5.18,7.37.36,15.78,2.61,26,8.8,3.33,34.25.15,44.39-11.47-.81-2.63-4.07-7.38-4.59-12.66C260,333.18,259.83,324.85,259.63,320.86Z" style="fill:#fafafa"></path><path d="M221.12,308l7.95-2.79s1.43,3.33,4.51,9.74,3.19,9.31,3.48,20.49,2.33,30.84,3.66,35.37c-4.93.69-9.19,7.83-21.85,5.61,0,0-2.65-12.94-3.07-35C215.59,330,215.53,311.25,221.12,308Z" style="fill:#37474f"></path><path d="M236.61,325.44c-1.23-10-5.44-10.56-6.41-7.26-3.65-5.46-4.34-10-4.28-11.85,1-1.45,1.84-2.75,2.23-3.36a2.69,2.69,0,0,1,1.63-1.31l.06,2.76s.27,2.69,3.27,6.38C235.31,313.51,236.09,317,236.61,325.44Z" style="fill:#455a64"></path><path d="M243.85,304.28c4.53,1.76,7.84,6.79,8.91,13.74s1.94,24.68,2.69,29.93,4.11,14.39,4.11,14.39,5.55-2.29,7.09-6.65c-2.56-3.33-4.93-8-5.37-12.33s0-18.31-.7-23.64S259.36,307,253,304.56c-2.72-1.06-9.14-1.49-9.14-1.49Z" style="fill:#37474f"></path><path d="M253.25,322c-.62-5.12-3.53-14.26-9.07-16.13a4.4,4.4,0,0,1-.33-1.62l.05-2.66a22.58,22.58,0,0,1,4.73,2.31c2.38,1.54,6.51,6.48,7.58,10.46C253.81,312.36,252.86,315.67,253.25,322Z" style="fill:#455a64"></path><g id="freepik--head--inject-110"><path d="M230.2,299.9c-.87-3.49-4.66-6.92-6.47-9.89s-2.83-5.1-2.86-7.91c0-1.66.86-4,2-4.54a17.44,17.44,0,0,1-.4-3.23,9.75,9.75,0,0,1,.74-3,10.7,10.7,0,0,1,3.85-4.72,16.57,16.57,0,0,1,8.34-2.39c2.93-.19,5.87,0,8.78-.4a13.44,13.44,0,0,0,7.93-3.39,7.75,7.75,0,0,0,.17,1.58c0,.62.06,1.25,0,1.88a8.36,8.36,0,0,1-.19,2.91,7.33,7.33,0,0,0,2.88-2.91c.34,2.7.64,5.64-.76,8a2.27,2.27,0,0,1,1.18,1.67,7,7,0,0,1-.42,4.42,10.44,10.44,0,0,1-2.64,3.61,18.28,18.28,0,0,1-6.83,3.75,48.69,48.69,0,0,1-7.68,1.59.87.87,0,0,0-.45.16.75.75,0,0,0-.18.31,61.55,61.55,0,0,1-3.93,7q-1.56,2.7-3.11,5.4S230.19,299.89,230.2,299.9Z" style="fill:#263238"></path><path d="M225.41,294.43a3.43,3.43,0,0,0,4.17-.3l.28,11.8c2.16,4.92,10.46,6.93,14.84,6.61a14.39,14.39,0,0,0-.36-7.69l-.07-3.2a11.76,11.76,0,0,0,4.33-.74,8.09,8.09,0,0,0,5.29-6.18,32.88,32.88,0,0,0,0-10.91c-.12-1-.23-2.18-.27-3.16a16.29,16.29,0,0,0-1.15-5.09A13.53,13.53,0,0,0,250,271.4a.88.88,0,0,0-.48-.35.79.79,0,0,0-.5.09,9.78,9.78,0,0,0-2,1.83,7.3,7.3,0,0,1-5.42,1.38A17.67,17.67,0,0,1,236,273a.92.92,0,0,0-.7-.11.65.65,0,0,0-.36.54,1.92,1.92,0,0,0,.11.67c.63,2.16,1.16,4.75.32,6.94a6.64,6.64,0,0,1-1.28,2c-.15.16-1.69,1.35-1.69,1.37.18,1.05.43,3.72-1.32,3.75-1.25,0-1.4-1.55-2.75-2.88s-4.37-1.58-5.45.52A6.78,6.78,0,0,0,225.41,294.43Z" style="fill:#ffa8a7"></path><path d="M244.27,301.65c-4.43-.33-7.16-1-10.24-3.44-2.42-1.92-3.42-6.23-3.42-6.23s0,4.88,2.29,7.58c1.51,1.77,4.46,3.82,11.4,4.11Z" style="fill:#f28f8f"></path><path d="M241.76,284a1.24,1.24,0,1,1-1.28-1.26A1.28,1.28,0,0,1,241.76,284Z" style="fill:#263238"></path><path d="M240.52,280.11,238,281.72a1.59,1.59,0,0,1,.5-2.15A1.49,1.49,0,0,1,240.52,280.11Z" style="fill:#263238"></path><path d="M252.27,280.74l-2.91-.94a1.45,1.45,0,0,1,1.87-1A1.61,1.61,0,0,1,252.27,280.74Z" style="fill:#263238"></path><path d="M251.84,283.19a1.26,1.26,0,0,1-1.32,1.21,1.28,1.28,0,0,1-1.16-1.37,1.26,1.26,0,0,1,1.32-1.21A1.28,1.28,0,0,1,251.84,283.19Z" style="fill:#263238"></path><path d="M249.88,287.93l-4.06,2-1.62-8.05C245.72,281.27,247.85,284.92,249.88,287.93Z" style="fill:#f28f8f"></path><path d="M241.23,291.79l5.23.89a2.61,2.61,0,0,1-3,2.26A2.78,2.78,0,0,1,241.23,291.79Z" style="fill:#b16668"></path><path d="M241.89,292.61a2.72,2.72,0,0,0-.64,0,2.73,2.73,0,0,0,2.21,2.3,2.69,2.69,0,0,0,.85,0A2.43,2.43,0,0,0,241.89,292.61Z" style="fill:#f28f8f"></path></g></g><g id="freepik--arm--inject-110"><g id="freepik--Laptop--inject-110"><path d="M295.47,378.7a8.15,8.15,0,0,0-1.27-1.49c-4.9-4.53-14.08-10.51-21.89-15.49L236.8,382.23a.32.32,0,0,0,0,.56l25.79,14.9Z" style="opacity:0.15"></path><path d="M306.24,368.28v.57a2.38,2.38,0,0,1-1.18,2l-41.29,23.83a2.34,2.34,0,0,1-1.18.31,2.39,2.39,0,0,1-1.18-.31l-22.51-13a2.38,2.38,0,0,1-1.18-2v-.79h0a.31.31,0,0,0,.15.26l24.71,14.27Z" style="fill:#37474f"></path><path d="M262.59,393.48v1.57a2.35,2.35,0,0,0,1.18-.32l41.29-23.84a2.36,2.36,0,0,0,1.18-2v-.58Z" style="fill:#263238"></path><path d="M306.24,368.27l-24.48-14.13a1.42,1.42,0,0,0-1.41,0l-42.47,24.53a.31.31,0,0,0,0,.54l24.71,14.27Z" style="fill:#455a64"></path><polygon points="262.37 391.4 249.16 383.78 287.77 361.49 301.05 369.07 262.37 391.4" style="fill:#37474f"></polygon><polygon points="301.05 369.07 300.54 369.36 287.77 362.07 249.67 384.07 249.16 383.78 287.77 361.49 301.05 369.07" style="fill:#263238"></polygon><polygon points="255.88 370.21 256.12 370.35 262.59 374.09 274.1 367.44 274.34 367.31 267.63 363.43 255.88 370.21" style="fill:#263238"></polygon><polygon points="256.12 370.35 262.59 374.09 274.1 367.44 267.63 363.71 256.12 370.35" style="fill:#37474f"></polygon><g id="freepik--arm--inject-110"><path d="M268.88,373c-2.07-2-5.07-4.9-7.6-5.73a12.6,12.6,0,0,0-1.77-.55,22.83,22.83,0,0,0,2.59-.52,4.53,4.53,0,0,0,2.19-1.46c.22-.28.38-.73.1-1a.66.66,0,0,0-.36-.13c-1.89-.06-3.38-.35-5.1-.47a6.88,6.88,0,0,0-2.31,0q-1.06.28-2.1.63c-3.14,1.09-6.11.8-10.44-1.18s-20-11.6-20-11.6l3.31,18.31,12.35,4.78h0l.13.05a29.55,29.55,0,0,0,4.24,1.86c2.79.86,6.37-.16,8.81-.28s6.55,1,8.8,1.9,5-2.55,6.09-2.14S271,375.08,268.88,373Z" style="fill:#ffa8a7"></path><path d="M258.46,365.4A8.47,8.47,0,0,0,255,366a19,19,0,0,1,4.49.79,22.83,22.83,0,0,0,2.59-.52,4.76,4.76,0,0,0,2-1.22C262.73,365.92,260.1,365.56,258.46,365.4Z" style="fill:#f28f8f"></path></g><path d="M263.26,393.82a2.77,2.77,0,0,0,2.41-.18l41.1-23.74a2.76,2.76,0,0,0,1.36-1.95l4.5-26.84a2.32,2.32,0,0,0,0-.46,2.82,2.82,0,0,0-.82-2l-42.72,24.66a2.08,2.08,0,0,0-1,1.45Z" style="fill:#263238"></path><path d="M262.59,393.48l.28.16.39.18,4.86-29a2.08,2.08,0,0,1,1-1.45l42.72-24.66a2.86,2.86,0,0,0-.58-.44L268.47,363a2.09,2.09,0,0,0-1,1.44Z" style="fill:#455a64"></path><path d="M268.52,363.88l-.66-.38a2.06,2.06,0,0,0-.4.89l-4.87,29.09.28.16.39.18,4.86-29A2.1,2.1,0,0,1,268.52,363.88Z" style="fill:#37474f"></path><path d="M286.41,369.05a9.1,9.1,0,0,1,4.14-5.33c2-1.15,3.36-.62,3.06,1.18a9.14,9.14,0,0,1-4.15,5.33C287.47,371.37,286.11,370.85,286.41,369.05Z" style="fill:#00006C"></path></g><path d="M236.13,359.64c-6.58-4.77-12-8.55-12-8.55L226,330.85s1.42-10-.83-15.67c-2.34-5.87-4.66-6.7-4.66-6.7a22.67,22.67,0,0,0-6.36,3.57c-2.55,2.23-3.77,7.41-4.38,14.72-.54,6.42-1.56,22.52-1.72,26.28-.2,4.76,0,8.59,5.06,10.9,5.33,2.43,21.29,7.88,21.29,7.88Z" style="fill:#ffa8a7"></path><path d="M221.12,308c-5.17,1.66-7.81,2.61-10,8.67s-2.11,17.21-2.78,26.13-1.16,14.75.27,17.57c.79,1.54,2.22,3,7.34,4.9S226,369,226,369s.49-7.89,6.11-13.2l-7.72-4.69s1.77-18.23,2.2-23.21S227.56,312.34,221.12,308Z" style="fill:#455a64"></path><path d="M224.4,351.09c-3-1.43-9-.14-10.31.94,1.53-2.64,5.61-3.59,10.51-3Z" style="fill:#37474f"></path><path d="M226.35,356.58a7.24,7.24,0,0,0-2.22,2.6,12.73,12.73,0,0,0-1.24,3.09,17.12,17.12,0,0,0-.52,3.77c0,.51,0,1.07,0,1.63l.57.21a16,16,0,0,1,.45-5.42,14.35,14.35,0,0,1,1.19-3,31.25,31.25,0,0,1,1.82-2.71C226.44,356.67,226.43,356.53,226.35,356.58Z" style="fill:#37474f"></path></g></g></g></g><g id="freepik--character-1--inject-110"><g id="freepik--character--inject-110"><g id="freepik--bottom--inject-110"><path d="M92.11,396.65l-.88-11.49,12.53,1.23s-.36,6.21-.62,9.73c-.16,2.08,2.42,6,2.42,6s-6,3.13-9.11,1.88-4.69-5.4-4.62-6.29S92.11,396.65,92.11,396.65Z" style="fill:#c8856a"></path><path d="M121.87,415.43a3,3,0,0,1-.61,3,13.55,13.55,0,0,1-9.73,2.05c-4.81-.66-7.41-2.15-9.32-3.75s-4.59-3.85-6.76-4.34a13.51,13.51,0,0,1-4.85-2c-.64-.62-.52-3.34-.52-3.34Z" style="fill:#263238"></path><path d="M92.11,396.63a.77.77,0,0,0-.74.63c-.16.75-.34,2.93-.67,4.15a21.58,21.58,0,0,0-.54,6.61c.25,1.39,3.54,2.4,5.64,3.21a26.83,26.83,0,0,1,6.79,4.29,19.49,19.49,0,0,0,10.12,3.81c3.72,0,7.91-1.11,8.89-2.78,1.21-2.07,2.1-4.49-3.39-7-1-.49-4.67-2.65-5.91-3.43-3.36-2.11-5.72-4.05-7.23-7.74a2.1,2.1,0,0,0-.78-1.14,1.77,1.77,0,0,0-1.07-.1,36.26,36.26,0,0,0-5.43.95c-.74.33-1.79.72-1.79,1.65a3.43,3.43,0,0,0,.2.94c.07.19.12.44-.06.55s-.37,0-.51-.14a15.4,15.4,0,0,1-1.47-1.76,4.77,4.77,0,0,0-.86-.88c-.29-.23-.67-.35-.94-.61S92.12,397.07,92.11,396.63Z" style="fill:#455a64"></path><path d="M102.59,415.52c-1-.79-2-1.55-3-2.23h0s6.44,3.92,9.08,2.2c1.7-1.1.91-2.48.87-2.92s6-3.46,7.59-3.63h0c.46.25.84.46,1.07.57,5.49,2.55,4.6,5,3.39,7-1,1.67-4,2.95-8.82,2.9C109.64,419.41,104.83,417.37,102.59,415.52Z" style="fill:#37474f"></path><path d="M109.11,411.29c3.41,1.38,2,2,1,2.11s-6.7-3.23-10.18-6c-3.64-2.88-5.92-6-7.27-7.06-.51-.4-1.05-.88-1.53-1.33.1-.74.18-1.41.25-1.76a.77.77,0,0,1,.74-.63c0,.44-.08.84.25,1.17s.65.38.94.61a4.77,4.77,0,0,1,.86.88,15.4,15.4,0,0,0,1.47,1.76C98.58,404.79,105.7,409.91,109.11,411.29Z" style="fill:#37474f"></path><path d="M109.86,412.91a.37.37,0,0,1-.22-.08.33.33,0,0,1,0-.47c1-1.14,5.59-3.84,8.11-3.54a.33.33,0,0,1-.08.66c-2.35-.28-6.73,2.4-7.51,3.31A.34.34,0,0,1,109.86,412.91Z" style="fill:#263238"></path><path d="M106.89,411.08a.45.45,0,0,1-.22-.08.33.33,0,0,1,0-.47c1-1.14,5.59-3.84,8.11-3.54a.33.33,0,1,1-.08.66c-2.35-.27-6.73,2.4-7.51,3.31A.34.34,0,0,1,106.89,411.08Z" style="fill:#263238"></path><path d="M103.92,409.34a.37.37,0,0,1-.22-.08.32.32,0,0,1,0-.46c1-1.15,5.59-3.85,8.11-3.55a.33.33,0,0,1-.08.66c-2.35-.27-6.73,2.4-7.51,3.31A.34.34,0,0,1,103.92,409.34Z" style="fill:#263238"></path><path d="M101.17,407.36a.31.31,0,0,1-.21-.07.33.33,0,0,1,0-.47c1-1.15,5.6-3.84,8.11-3.54a.34.34,0,0,1,.3.37.35.35,0,0,1-.38.29c-2.35-.28-6.73,2.4-7.51,3.31A.31.31,0,0,1,101.17,407.36Z" style="fill:#263238"></path><path d="M98.48,405.39a.38.38,0,0,1-.21-.07.33.33,0,0,1,0-.47c1.34-1.63,6.16-3.87,8.68-3.57a.34.34,0,0,1,.3.37.35.35,0,0,1-.38.29c-2.26-.27-6.88,1.89-8.08,3.33A.32.32,0,0,1,98.48,405.39Z" style="fill:#263238"></path><path d="M70.93,405.38l2.3-11.1-13-1.32v10.61s-1.17,3.86-.31,5.2,9.49,2.41,10.24,1.46S70.93,405.38,70.93,405.38Z" style="fill:#c8856a"></path><path d="M70.87,429.28c-.23,3.41-.83,5.63-2.16,7.53s-3.82,2.33-6.33,1.53-5.72-2.63-6.42-5.65a17.46,17.46,0,0,1,0-8.16Z" style="fill:#263238"></path><path d="M60.25,403.57c-1,0-.59,4.63-1.22,9.19-.67,4.88-2.28,6.79-2.88,10.79-.69,4.58-.44,6.66,1.3,9.61s7.93,6.2,11,2.44c2.51-3.06,2.64-6.67,2.45-11.31a105.69,105.69,0,0,1-.15-11.77c.22-3.45,1.06-6.55.16-7-.07.51-.14,1.14-.22,1.64s-.18,2.24-.76,2.21a6.28,6.28,0,0,1,0-1.3,1.51,1.51,0,0,0-.28-1.14,4.54,4.54,0,0,0-1.7-.81c-1-.27-2.83-.59-3.86-.76-.52-.08-1-.15-1.56-.19a4.41,4.41,0,0,0-1.31.07.77.77,0,0,0-.56.42,1.33,1.33,0,0,0-.06.53,3.22,3.22,0,0,1-.14.93c0,.14-.14.3-.29.25a.3.3,0,0,1-.17-.29c0-.56.08-1,.12-1.61,0-.3.07-.7.07-1S60.22,403.87,60.25,403.57Z" style="fill:#455a64"></path><path d="M56.39,422.26c-.1.66-.75,5,.55,5.93s2.2-2.43,2.2-2.43,3.32-.66,8.12,1.68c-.25.69.47,3.12,1.8,2.73s1.86-5.41,1.87-5.48c.17,4.45,0,7.94-2.46,10.91-3.09,3.76-9.29.5-11-2.44s-2-5-1.3-9.61Q56.26,422.88,56.39,422.26Z" style="fill:#37474f"></path><path d="M59.52,426.08c0,1.68-1.82,1-1.88-1.4S59,416.82,59,412.76c.08-5.58.18-9.2,1.22-9.19,0,.06,0,.11,0,.17l-.15,2.33c0,.34-.07.64-.07,1-.05,3.41.18,10-.16,13.11A49.46,49.46,0,0,0,59.52,426.08Z" style="fill:#37474f"></path><path d="M66.7,427.35a48.89,48.89,0,0,0,1-5.79c.38-3.06,1.87-9.23,2.6-12.54a7.51,7.51,0,0,0,.38-1.87c.07-.46.14-1,.21-1.53a.3.3,0,0,1,0-.1c.64.34.53,3,.25,4.36s-.63,2.86-1,4.84c-.92,3.91-.79,9.7-1.39,11.95S66.35,429,66.7,427.35Z" style="fill:#37474f"></path><path d="M67.36,427.58a.34.34,0,0,1-.14-.05,13.64,13.64,0,0,0-8-1.42.43.43,0,0,1-.47-.29.32.32,0,0,1,.28-.41,14.26,14.26,0,0,1,8.53,1.52.34.34,0,0,1-.22.65Z" style="fill:#263238"></path><path d="M68.25,424a.33.33,0,0,1-.13,0,16.91,16.91,0,0,0-8.93-1.59.43.43,0,0,1-.46-.3.33.33,0,0,1,.29-.41,17.46,17.46,0,0,1,9.44,1.69.37.37,0,0,1,.18.49A.37.37,0,0,1,68.25,424Z" style="fill:#263238"></path><path d="M59.46,419a.41.41,0,0,1-.32-.26.32.32,0,0,1,.24-.43c4.66-1.07,9.24,1.49,9.43,1.6a.35.35,0,0,1,.16.49.4.4,0,0,1-.52.11S64,418,59.63,419A.49.49,0,0,1,59.46,419Z" style="fill:#263238"></path><path d="M59.75,415.73a.41.41,0,0,1-.32-.26.32.32,0,0,1,.23-.43,13.2,13.2,0,0,1,9.62,1.59.36.36,0,0,1,.13.5.39.39,0,0,1-.53.07,12.65,12.65,0,0,0-9-1.47Z" style="fill:#263238"></path><path d="M60.09,412.11a.43.43,0,0,1-.32-.26.33.33,0,0,1,.23-.44c4.8-1.26,9.49,1.58,9.68,1.7a.34.34,0,0,1,.14.49.37.37,0,0,1-.52.09s-4.58-2.76-9-1.59A.37.37,0,0,1,60.09,412.11Z" style="fill:#263238"></path><path d="M62.28,296.66c-2.41,26.67-1.47,58.72-1.47,58.72A99.19,99.19,0,0,0,58.94,374c.06,14.14.81,24.66.81,24.66,3.09,2.64,9.55,3.17,12.83,1.49,0,0,4.81-22.31,7.68-35s6-26.65,6-26.65l2.08,16.32a143,143,0,0,0-.3,14.34c.38,7.26,3.18,24.62,3.18,24.62,1.78,2.28,9.6,2.75,12.35,0,0,0,4-31.43,4.47-40.65,1-19,.37-39.39.19-58.27Z" style="fill:#455a64"></path><path d="M86.27,338.42l3.14-24.83s6.78-.92,10.3-4.19c0,0-2.31,4.36-8.71,6l-2.63,23.24,0,16.13Z" style="fill:#37474f"></path></g><g id="freepik--top--inject-110"><path d="M140.31,274.57c-3.18,1-4.63,1.4-9,2.8-3.85,1.24-12.22,4.64-19.79,5.43-5.38.56-6.86-7.14-7.43-10.84-1.06-7-2.44-19.13-2.44-19.13l-1.39-16.36c8.52,2.74,12.51,4,14.88,16.15,1,5,2.78,15.69,2.78,15.69s15.39-1.68,17.73-2.07c4.69-.77,7.05-2.82,10.27-.92a23.2,23.2,0,0,1,5.37,4.48l-11,4.77" style="fill:#c8856a"></path><path d="M99.72,236.05c6,1.3,12.91,3,15.1,12,1.43,5.92,3.67,19.39,3.67,19.39l11.73-.44s-2,1.75-1.45,5.64a6.89,6.89,0,0,0,2.55,4.74s-6.7,2.81-14,5.11c-6.66,2.1-8.87,1.63-10.63-.57s-2.53-6.76-3.3-11c-1.22-6.67-2.26-18.73-2.26-18.73Z" style="fill:#37474f"></path><g id="freepik--chest--inject-110"><g id="freepik--chest--inject-110"><path d="M65,237.7s-4.43,9.47-3.48,19a144.45,144.45,0,0,1,.72,19.16c-.05,6.92-.41,21.24-.41,21.24,7.1,6,39.66,7.55,46.92-1.51v-26.7c0-8.75-.68-15.84-1.67-20-2.25-9.34-5.51-11.48-7.4-12.9-6.12-1.58-12.49-2.35-16.87-1.72C72.29,235.86,65,237.7,65,237.7Z" style="fill:#00006C"></path></g></g><g id="freepik--head--inject-110"><path d="M78.21,232.18c-3.08-4.54-5.18-7.55-7.43-12.61-.91-2.06-3.51-8.27-2.57-11.14a5.81,5.81,0,0,1,3.32-3.77,7.3,7.3,0,0,1,1.92-6.3c2.5-2.68,5-3.39,7.85-4a19.94,19.94,0,0,1,8.75.55c2.65.69,5.84,2,8.39.26a2.93,2.93,0,0,0,1.39-2.66,4.4,4.4,0,0,1,1,7.19,2.94,2.94,0,0,1,.21,5.8,3.2,3.2,0,0,1,.63,3.55,5.27,5.27,0,0,1-2.43,2.73,5.19,5.19,0,0,1-3.63.42c.4.1,0,2.71-.12,3a4,4,0,0,1-1.21,2.29,46.58,46.58,0,0,0-4.75,4.15l-8.43,7.83Z" style="fill:#263238"></path><path d="M100.36,223c-.45,3.95-2.23,6.13-4.72,7.29a12.56,12.56,0,0,1-4.22.81v3.21c8.33,8.52-10.79,8.73-15,1l-.12-10.91a3.34,3.34,0,0,1-4.36.59c-1.89-1.24-4.07-4.34-3.09-7.47.73-2.35,3.28-2.92,5.42-1.5.76.5,1.25,1.24,2,1.78s1.61-.09,2-.85c.91-1.83.55-3.16.09-5.15a7.88,7.88,0,0,0,3.13-2.52c.76-1.12.73-3.31.49-4.64a21.88,21.88,0,0,0,9.38.38c2.33-.59,4.8-1.38,6.52-3.13,1.69,3,1.34,5.54,1.94,9A42.47,42.47,0,0,1,100.36,223Z" style="fill:#c8856a"></path><path d="M91.42,231.13c-3,.16-7.89-.21-10.59-2.57a18.23,18.23,0,0,1-3.38-4.22s1,3.6,2.77,5.42a12.6,12.6,0,0,0,6.44,3,40.42,40.42,0,0,0,4.78.16Z" style="fill:#af6152"></path><path d="M87.86,222l4.39.86a2.19,2.19,0,0,1-2.57,1.83A2.33,2.33,0,0,1,87.86,222Z" style="fill:#af6152"></path><path d="M88.25,223a2.45,2.45,0,0,1,2.66,1.62,2.13,2.13,0,0,1-1.23.12A2.31,2.31,0,0,1,87.92,223,1.76,1.76,0,0,1,88.25,223Z" style="fill:#ffa8a7"></path><path d="M83.56,212l2.64-1.63a1.49,1.49,0,0,0-2.09-.55A1.64,1.64,0,0,0,83.56,212Z" style="fill:#263238"></path><path d="M98.19,211.05,95.4,209.7a1.5,1.5,0,0,1,2-.76A1.63,1.63,0,0,1,98.19,211.05Z" style="fill:#263238"></path><path d="M85.07,214.31a1.34,1.34,0,0,0,1.35,1.28,1.25,1.25,0,0,0,1.26-1.31A1.34,1.34,0,0,0,86.33,213,1.25,1.25,0,0,0,85.07,214.31Z" style="fill:#263238"></path><path d="M94.86,213.45a1.33,1.33,0,0,0,1.35,1.27,1.25,1.25,0,0,0,1.26-1.3,1.34,1.34,0,0,0-1.36-1.27A1.24,1.24,0,0,0,94.86,213.45Z" style="fill:#263238"></path><path d="M95.74,218l-4.07,1.88-1.25-7.65C91.91,211.89,94.23,215.22,95.74,218Z" style="fill:#af6152"></path></g><g id="freepik--Pen--inject-110"><path d="M24.88,326.69a3.76,3.76,0,0,1-3.62-6.59h0l5.82-3.17a1.87,1.87,0,0,1,1.88.22,5.9,5.9,0,0,1,2.56,4.66,1.88,1.88,0,0,1-.82,1.71l-5.81,3.17Z" style="fill:#455a64"></path><path d="M31.52,321.81a1.88,1.88,0,0,1-.82,1.71l-5.81,3.17h0a3.76,3.76,0,0,1-3.65,0h0c1,.38,5.07-1.84,6.9-2.85s2.77-2.32,1.39-5.1c-1-2-2.22-1.84-2.81-1.59l.37-.2a1.87,1.87,0,0,1,1.88.22A5.9,5.9,0,0,1,31.52,321.81Z" style="fill:#37474f"></path><path d="M41.78,325.31a10.59,10.59,0,0,1-10.19-18.56h0c1.37-.75,3.24-.6,5.28.64a16.57,16.57,0,0,1,7.21,13.12c0,2.39-.93,4.05-2.3,4.8Z" style="fill:#00006C"></path><path d="M162,238.62a16.57,16.57,0,0,1,7.21,13.12c-.06,2.39-.93,4-2.3,4.8L41.78,325.31c-1.37.75-3.24.6-5.28-.64a16.52,16.52,0,0,1-7.2-13.12c.05-2.38.92-4,2.29-4.8L156.76,238C158.13,237.23,160,237.39,162,238.62Z" style="fill:#00006C"></path><path d="M162,238.62a16.57,16.57,0,0,1,7.21,13.12c-.06,2.39-.93,4-2.3,4.8L41.78,325.31c-1.37.75-3.24.6-5.28-.64a16.52,16.52,0,0,1-7.2-13.12c.05-2.38.92-4,2.29-4.8L156.76,238C158.13,237.23,160,237.39,162,238.62Z" style="fill:#fff;opacity:0.35000000000000003"></path><path d="M162,238.62c-2-1.23-3.91-1.39-5.28-.63l-1.5.82a6.36,6.36,0,0,0-1.25,4,17,17,0,0,0,7.43,13.48,6.52,6.52,0,0,0,4,1.08l1.5-.83c1.37-.75,2.24-2.41,2.3-4.8A16.57,16.57,0,0,0,162,238.62Z" style="fill:#00006C"></path><path d="M143.78,253.63l-23,12.61a1.4,1.4,0,0,0-.55,1.92l1,1.76a1.43,1.43,0,0,0,1.93.55l22.95-12.61a1.39,1.39,0,0,0,.55-1.91l-1-1.76A1.44,1.44,0,0,0,143.78,253.63Z" style="fill:#00006C"></path><path d="M143.78,253.63l-23,12.61a1.4,1.4,0,0,0-.55,1.92l1,1.76a1.43,1.43,0,0,0,1.93.55l22.95-12.61a1.39,1.39,0,0,0,.55-1.91l-1-1.76A1.44,1.44,0,0,0,143.78,253.63Z" style="opacity:0.35000000000000003"></path><polygon points="139.46 261.31 137.26 257.38 136.58 257.78 138.78 261.72 139.46 261.31" style="opacity:0.35000000000000003"></polygon><path d="M175.38,248.6A17,17,0,0,0,168,235.12c-2.1-1.27-4-1.42-5.43-.64l-5.09,2.8c-1.4.78-2.3,2.49-2.35,4.94a17,17,0,0,0,7.44,13.47c2.1,1.27,4,1.43,5.43.65l5.08-2.81C174.44,252.76,175.34,251.05,175.38,248.6Z" style="fill:#00006C"></path><path d="M175.38,248.6A17,17,0,0,0,168,235.12c-2.1-1.27-4-1.42-5.43-.64l-5.09,2.8c-1.4.78-2.3,2.49-2.35,4.94a17,17,0,0,0,7.44,13.47c2.1,1.27,4,1.43,5.43.65l5.08-2.81C174.44,252.76,175.34,251.05,175.38,248.6Z" style="fill:#fff;opacity:0.35000000000000003"></path><path d="M188.67,230.09a2.57,2.57,0,0,0-.91-.41c-5.55-.81-21.21,2.67-25.15,4.76l-.09,0c-1.41.77-2.3,2.48-2.35,4.93a17,17,0,0,0,7.43,13.48c2.1,1.26,4,1.42,5.42.65h0c3.78-2.08,15.26-13.54,17.58-18.7h0a2.18,2.18,0,0,0,.19-.86A4.87,4.87,0,0,0,188.67,230.09Z" style="fill:#00006C"></path><path d="M197.23,228.09h0a1.31,1.31,0,0,1-.54,1.77L190,233.39a1.32,1.32,0,0,1-1.77-.55h0a1.31,1.31,0,0,1,.55-1.77l6.67-3.53A1.31,1.31,0,0,1,197.23,228.09Z"></path></g><path d="M78.25,277.27c1.82-2.06,2.35-2.33,4.53-2.72s3.18-.59,4-.67a18.33,18.33,0,0,1,4.5.44c1.11.49-.25,2.24-1.91,2.43s-3.84.27-3.84.27Z" style="fill:#af6152"></path><path d="M65.83,237.88A24.09,24.09,0,0,0,49.52,251c-5.3,10.44-7.3,17.73-9.62,22.27-2.77,5.43,2.28,9.25,6.47,11.42,5.4,2.8,13.65,7.48,19.78,7.27,2.7-.09,4-1.43,5.28-2.77l6-5.68s-6-.73-8.28-1.78-13.34-8.47-13.34-8.47l7.71-12.46S71.33,245.1,65.83,237.88Z" style="fill:#c8856a"></path><path d="M66.52,237.35A19.58,19.58,0,0,0,56,241.58c-3.23,2.75-4.58,3.57-10.16,15.42S39,272.82,38.27,275.22c-.89,2.94.32,4.86,3.88,7.49s13.92,6.83,13.92,6.83a12.56,12.56,0,0,1,3.32-6.5,13.27,13.27,0,0,1,6-3.56l-9-6.67s6.9-10.62,8.85-14.87C67.82,252.22,69.43,245.33,66.52,237.35Z" style="fill:#37474f"></path><path d="M69.89,286.52c.71-.24.53-3.3,1.7-3.9s1.35-.46,1.79-1.72a2.46,2.46,0,0,1,2-1.88c.76,0,.28-1.4,1.62-1.94a25.11,25.11,0,0,1,5.38-.86c1.28-.05,4.4,1.37,5.76,2.08s.62,1.66-.1,2.17a4.36,4.36,0,0,1-2.31.37s1.42,1,1.2,1.51c-.29.73-1.5,1.52-3.43,1,1.31.66,1.28,1.47.36,2a4.67,4.67,0,0,1-3.17.13c-1.69-.36-4.12-.81-5.33-.11L74,286.75Z" style="fill:#c8856a"></path><path d="M69.89,286.52c.32-.08.45-.43.58-.69a7,7,0,0,0,.29-.84,9.63,9.63,0,0,1,.54-1.57,1.21,1.21,0,0,1,.42-.53l.75-.43a1.56,1.56,0,0,0,.69-.68,3.07,3.07,0,0,0,.22-.88,4.88,4.88,0,0,1-.48.71,1.51,1.51,0,0,1-.65.41,7.93,7.93,0,0,0-.82.34,1.71,1.71,0,0,0-.7.77,5.51,5.51,0,0,0-.45,1.76l-.11.86A1.18,1.18,0,0,1,69.89,286.52Z" style="fill:#af6152"></path><path d="M85.75,280.84c-.72-.42-1.43-.84-2.18-1.21a13.65,13.65,0,0,0-2.33-1,11,11,0,0,0-2.56,0,19.05,19.05,0,0,0-2.48.38q1.26.11,2.49.12l1.24,0a6.83,6.83,0,0,1,1.16.09c.73.2,1.51.56,2.28.84A20,20,0,0,0,85.75,280.84Z" style="fill:#af6152"></path><path d="M74.45,282c.79,0,1.59-.09,2.34-.15a6.45,6.45,0,0,1,2.2.32c1.48.41,3,.87,4.53,1.15a21.2,21.2,0,0,0-4.36-1.77,5.38,5.38,0,0,0-2.43-.19A21.3,21.3,0,0,0,74.45,282Z" style="fill:#af6152"></path><path d="M152.15,268.72c2.48-1.21,2.88-1.64,3.84-3.64s1.42-2.91,1.72-3.72a18,18,0,0,0,.78-4.46c-.17-1.19-2.22-.35-2.85,1.19s-1.29,3.63-1.29,3.63Z" style="fill:#af6152"></path><path d="M140.3,274.57c1.71-.44,4,.1,4.92-.86s.81-1.18,2.13-1.27a2.45,2.45,0,0,0,2.36-1.44c.24-.72,1.42.1,2.3-1.05a24.18,24.18,0,0,0,2.26-4.95c.4-1.22-.14-4.61-.46-6.11s-1.43-1-2.12-.48a4.38,4.38,0,0,0-1,2.12s-.53-1.62-1.13-1.55c-.79.08-1.87,1-1.88,3-.28-1.43-1.07-1.62-1.84-.87a4.67,4.67,0,0,0-1,3c-.1,1.73-.48,4.1-1.47,5.08a18.78,18.78,0,0,0-2.53,1.63Z" style="fill:#c8856a"></path><path d="M150.72,260.53c.22.81.42,1.62.59,2.43a14.32,14.32,0,0,1,.35,2.51A11.55,11.55,0,0,1,151,268a19.41,19.41,0,0,1-1,2.28c.16-.82.34-1.63.55-2.43l.3-1.2a6.68,6.68,0,0,0,.23-1.15c0-.75-.14-1.6-.2-2.42A18.87,18.87,0,0,1,150.72,260.53Z" style="fill:#af6152"></path><path d="M146.56,271.11c.2-.76.52-1.5.77-2.21a6.46,6.46,0,0,0,.28-2.2c0-1.55,0-3.11.1-4.69a21.77,21.77,0,0,1,.54,4.69,5.39,5.39,0,0,1-.46,2.39A19.4,19.4,0,0,1,146.56,271.11Z" style="fill:#af6152"></path></g></g></g></svg>
