<svg width="799" height="490" viewBox="0 0 799 490" fill="none" xmlns="http://www.w3.org/2000/svg">
<g clip-path="url(#clip0_7_32)">
<rect width="799" height="490" fill="#01001B"/>
<circle cx="774.548" cy="21.4197" r="28.4193" transform="rotate(27.927 774.548 21.4197)" fill="url(#paint0_linear_7_32)"/>
<circle cx="382.37" cy="223.37" r="30.5" transform="rotate(-159.113 382.37 223.37)" fill="url(#paint1_linear_7_32)"/>
<circle cx="580.37" cy="17.3699" r="30.5" transform="rotate(-159.113 580.37 17.3699)" fill="url(#paint2_linear_7_32)"/>
<circle cx="722.37" cy="466.37" r="30.5" transform="rotate(-159.113 722.37 466.37)" fill="url(#paint3_linear_7_32)"/>
<ellipse cx="680.5" cy="210.5" rx="36.5" ry="35.5" fill="url(#paint4_linear_7_32)"/>
<path d="M640.196 206.094H633.974C633.861 205.289 633.629 204.574 633.278 203.949C632.928 203.314 632.478 202.775 631.929 202.33C631.38 201.884 630.745 201.544 630.026 201.307C629.315 201.07 628.544 200.952 627.71 200.952C626.205 200.952 624.893 201.326 623.776 202.074C622.658 202.812 621.792 203.892 621.176 205.312C620.561 206.723 620.253 208.437 620.253 210.455C620.253 212.528 620.561 214.271 621.176 215.682C621.801 217.093 622.672 218.158 623.79 218.878C624.907 219.598 626.2 219.957 627.668 219.957C628.491 219.957 629.254 219.848 629.955 219.631C630.665 219.413 631.295 219.096 631.844 218.679C632.393 218.253 632.848 217.737 633.207 217.131C633.577 216.525 633.832 215.833 633.974 215.057L640.196 215.085C640.035 216.42 639.633 217.708 638.989 218.949C638.354 220.18 637.497 221.283 636.418 222.259C635.348 223.224 634.069 223.991 632.582 224.56C631.105 225.118 629.434 225.398 627.568 225.398C624.973 225.398 622.653 224.811 620.608 223.636C618.572 222.462 616.962 220.762 615.778 218.537C614.604 216.312 614.017 213.617 614.017 210.455C614.017 207.282 614.614 204.583 615.807 202.358C617 200.133 618.619 198.437 620.665 197.273C622.71 196.098 625.011 195.511 627.568 195.511C629.254 195.511 630.816 195.748 632.256 196.222C633.705 196.695 634.988 197.386 636.105 198.295C637.223 199.195 638.132 200.298 638.832 201.605C639.543 202.912 639.997 204.408 640.196 206.094ZM732.833 225H722.521V195.909H732.918C735.844 195.909 738.363 196.491 740.475 197.656C742.587 198.812 744.211 200.473 745.347 202.642C746.493 204.811 747.066 207.405 747.066 210.426C747.066 213.456 746.493 216.061 745.347 218.239C744.211 220.417 742.577 222.088 740.447 223.253C738.326 224.418 735.788 225 732.833 225ZM728.671 219.73H732.577C734.396 219.73 735.925 219.408 737.165 218.764C738.415 218.111 739.353 217.102 739.978 215.739C740.612 214.366 740.93 212.595 740.93 210.426C740.93 208.277 740.612 206.52 739.978 205.156C739.353 203.793 738.42 202.789 737.18 202.145C735.939 201.501 734.41 201.179 732.592 201.179H728.671V219.73Z" fill="white"/>
<path d="M654.757 195.909V225H648.607V195.909H654.757ZM679.599 204.276C679.485 203.13 678.997 202.24 678.136 201.605C677.274 200.971 676.104 200.653 674.627 200.653C673.623 200.653 672.776 200.795 672.085 201.08C671.393 201.354 670.863 201.738 670.494 202.23C670.134 202.723 669.954 203.281 669.954 203.906C669.935 204.427 670.044 204.882 670.281 205.27C670.527 205.658 670.863 205.994 671.289 206.278C671.715 206.553 672.208 206.795 672.766 207.003C673.325 207.202 673.922 207.372 674.556 207.514L677.17 208.139C678.439 208.423 679.603 208.802 680.664 209.276C681.725 209.749 682.643 210.331 683.42 211.023C684.196 211.714 684.798 212.528 685.224 213.466C685.659 214.403 685.882 215.478 685.891 216.69C685.882 218.471 685.427 220.014 684.528 221.321C683.638 222.618 682.35 223.627 680.664 224.347C678.988 225.057 676.966 225.412 674.599 225.412C672.25 225.412 670.205 225.052 668.462 224.332C666.729 223.613 665.375 222.547 664.4 221.136C663.434 219.716 662.927 217.959 662.88 215.866H668.832C668.898 216.842 669.177 217.656 669.67 218.31C670.172 218.954 670.839 219.441 671.673 219.773C672.515 220.095 673.467 220.256 674.528 220.256C675.569 220.256 676.474 220.104 677.241 219.801C678.017 219.498 678.619 219.077 679.045 218.537C679.471 217.997 679.684 217.377 679.684 216.676C679.684 216.023 679.49 215.473 679.102 215.028C678.723 214.583 678.164 214.205 677.425 213.892C676.696 213.58 675.801 213.295 674.741 213.04L671.573 212.244C669.121 211.648 667.184 210.715 665.763 209.446C664.343 208.177 663.638 206.468 663.647 204.318C663.638 202.557 664.106 201.018 665.053 199.702C666.01 198.385 667.321 197.358 668.988 196.619C670.655 195.881 672.549 195.511 674.67 195.511C676.829 195.511 678.713 195.881 680.323 196.619C681.942 197.358 683.202 198.385 684.102 199.702C685.001 201.018 685.465 202.543 685.494 204.276H679.599ZM694.028 225V195.909H713.631V200.98H700.179V207.912H712.622V212.983H700.179V219.929H713.688V225H694.028Z" fill="#01001B"/>
<circle cx="26.5" cy="-7.5" r="64.5" fill="white"/>
<path d="M846 210C846 224.359 833.912 236 819 236C804.088 236 792 224.359 792 210C792 195.641 804.088 184 819 184C833.912 184 846 195.641 846 210Z" fill="white" fill-opacity="0.87"/>
<path d="M760.933 359.636L754.903 353.852L747.539 357.799L751.177 350.277L745.147 344.494L753.425 345.629L757.062 338.107L758.541 346.33L766.818 347.465L759.455 351.412L760.933 359.636Z" fill="url(#paint5_linear_7_32)"/>
</g>
<defs>
<linearGradient id="paint0_linear_7_32" x1="774.548" y1="-6.99951" x2="774.548" y2="49.839" gradientUnits="userSpaceOnUse">
<stop stop-color="#01001B"/>
<stop offset="0.09375" stop-color="#01001B" stop-opacity="0.89"/>
<stop offset="0.307292" stop-color="#01001B" stop-opacity="0.83"/>
<stop offset="0.489583" stop-color="#898995"/>
<stop offset="0.489683" stop-color="#898995"/>
<stop offset="0.650942" stop-color="#CBCAD0"/>
<stop offset="0.651042" stop-color="#CBCAD0"/>
<stop offset="0.885417" stop-color="white"/>
</linearGradient>
<linearGradient id="paint1_linear_7_32" x1="382.37" y1="192.87" x2="382.37" y2="253.87" gradientUnits="userSpaceOnUse">
<stop stop-color="#01001B" stop-opacity="0"/>
<stop offset="0.776042" stop-color="white" stop-opacity="0.23"/>
</linearGradient>
<linearGradient id="paint2_linear_7_32" x1="580.37" y1="-13.1301" x2="580.37" y2="47.8699" gradientUnits="userSpaceOnUse">
<stop stop-color="#01001B" stop-opacity="0"/>
<stop offset="0.776042" stop-color="white" stop-opacity="0.23"/>
</linearGradient>
<linearGradient id="paint3_linear_7_32" x1="722.37" y1="435.87" x2="722.37" y2="496.87" gradientUnits="userSpaceOnUse">
<stop stop-color="#01001B" stop-opacity="0"/>
<stop offset="0.776042" stop-color="white" stop-opacity="0.23"/>
</linearGradient>
<linearGradient id="paint4_linear_7_32" x1="723" y1="161" x2="651" y2="253" gradientUnits="userSpaceOnUse">
<stop offset="0.487104" stop-color="white"/>
<stop offset="1" stop-color="white" stop-opacity="0"/>
</linearGradient>
<linearGradient id="paint5_linear_7_32" x1="760.933" y1="359.636" x2="750.067" y2="339.364" gradientUnits="userSpaceOnUse">
<stop offset="0.411458" stop-color="#01001B"/>
<stop offset="1" stop-color="white" stop-opacity="0.87"/>
</linearGradient>
<clipPath id="clip0_7_32">
<rect width="799" height="490" fill="white"/>
</clipPath>
</defs>
</svg>
