<svg width="467" height="283" viewBox="0 0 467 283" fill="none" xmlns="http://www.w3.org/2000/svg">
<g clip-path="url(#clip0_7_32)">
<rect width="467" height="283" fill="#01001B"/>
<circle cx="442.548" cy="12.5484" r="28.4193" transform="rotate(27.927 442.548 12.5484)" fill="url(#paint0_linear_7_32)"/>
<circle cx="318.37" cy="258.37" r="30.5" transform="rotate(-159.113 318.37 258.37)" fill="url(#paint1_linear_7_32)"/>
<ellipse cx="348.5" cy="142.5" rx="36.5" ry="35.5" fill="url(#paint2_linear_7_32)"/>
<path d="M308.196 138.094H301.974C301.861 137.289 301.629 136.574 301.278 135.949C300.928 135.314 300.478 134.775 299.929 134.33C299.38 133.884 298.745 133.544 298.026 133.307C297.315 133.07 296.544 132.952 295.71 132.952C294.205 132.952 292.893 133.326 291.776 134.074C290.658 134.812 289.792 135.892 289.176 137.312C288.561 138.723 288.253 140.437 288.253 142.455C288.253 144.528 288.561 146.271 289.176 147.682C289.801 149.093 290.672 150.158 291.79 150.878C292.907 151.598 294.2 151.957 295.668 151.957C296.491 151.957 297.254 151.848 297.955 151.631C298.665 151.413 299.295 151.096 299.844 150.679C300.393 150.253 300.848 149.737 301.207 149.131C301.577 148.525 301.832 147.833 301.974 147.057L308.196 147.085C308.035 148.42 307.633 149.708 306.989 150.949C306.354 152.18 305.497 153.283 304.418 154.259C303.348 155.224 302.069 155.991 300.582 156.56C299.105 157.118 297.434 157.398 295.568 157.398C292.973 157.398 290.653 156.811 288.608 155.636C286.572 154.462 284.962 152.762 283.778 150.537C282.604 148.312 282.017 145.617 282.017 142.455C282.017 139.282 282.614 136.583 283.807 134.358C285 132.133 286.619 130.437 288.665 129.273C290.71 128.098 293.011 127.511 295.568 127.511C297.254 127.511 298.816 127.748 300.256 128.222C301.705 128.695 302.988 129.386 304.105 130.295C305.223 131.195 306.132 132.298 306.832 133.605C307.543 134.912 307.997 136.408 308.196 138.094ZM400.833 157H390.521V127.909H400.918C403.844 127.909 406.363 128.491 408.475 129.656C410.587 130.812 412.211 132.473 413.347 134.642C414.493 136.811 415.066 139.405 415.066 142.426C415.066 145.456 414.493 148.061 413.347 150.239C412.211 152.417 410.577 154.088 408.447 155.253C406.326 156.418 403.788 157 400.833 157ZM396.671 151.73H400.577C402.396 151.73 403.925 151.408 405.165 150.764C406.415 150.111 407.353 149.102 407.978 147.739C408.612 146.366 408.93 144.595 408.93 142.426C408.93 140.277 408.612 138.52 407.978 137.156C407.353 135.793 406.42 134.789 405.18 134.145C403.939 133.501 402.41 133.179 400.592 133.179H396.671V151.73Z" fill="white"/>
<path d="M322.757 127.909V157H316.607V127.909H322.757ZM347.599 136.276C347.485 135.13 346.997 134.24 346.136 133.605C345.274 132.971 344.104 132.653 342.627 132.653C341.623 132.653 340.776 132.795 340.085 133.08C339.393 133.354 338.863 133.738 338.494 134.23C338.134 134.723 337.954 135.281 337.954 135.906C337.935 136.427 338.044 136.882 338.281 137.27C338.527 137.658 338.863 137.994 339.289 138.278C339.715 138.553 340.208 138.795 340.766 139.003C341.325 139.202 341.922 139.372 342.556 139.514L345.17 140.139C346.439 140.423 347.603 140.802 348.664 141.276C349.725 141.749 350.643 142.331 351.42 143.023C352.196 143.714 352.798 144.528 353.224 145.466C353.659 146.403 353.882 147.478 353.891 148.69C353.882 150.471 353.427 152.014 352.528 153.321C351.638 154.618 350.35 155.627 348.664 156.347C346.988 157.057 344.966 157.412 342.599 157.412C340.25 157.412 338.205 157.052 336.462 156.332C334.729 155.613 333.375 154.547 332.4 153.136C331.434 151.716 330.927 149.959 330.88 147.866H336.832C336.898 148.842 337.177 149.656 337.67 150.31C338.172 150.954 338.839 151.441 339.673 151.773C340.515 152.095 341.467 152.256 342.528 152.256C343.569 152.256 344.474 152.104 345.241 151.801C346.017 151.498 346.619 151.077 347.045 150.537C347.471 149.997 347.684 149.377 347.684 148.676C347.684 148.023 347.49 147.473 347.102 147.028C346.723 146.583 346.164 146.205 345.425 145.892C344.696 145.58 343.801 145.295 342.741 145.04L339.573 144.244C337.121 143.648 335.184 142.715 333.763 141.446C332.343 140.177 331.638 138.468 331.647 136.318C331.638 134.557 332.106 133.018 333.053 131.702C334.01 130.385 335.321 129.358 336.988 128.619C338.655 127.881 340.549 127.511 342.67 127.511C344.829 127.511 346.713 127.881 348.323 128.619C349.942 129.358 351.202 130.385 352.102 131.702C353.001 133.018 353.465 134.543 353.494 136.276H347.599ZM362.028 157V127.909H381.631V132.98H368.179V139.912H380.622V144.983H368.179V151.929H381.688V157H362.028Z" fill="#01001B"/>
<circle cx="49.5" cy="13.5" r="64.5" fill="white"/>
<path d="M512 147C512 161.359 499.912 173 485 173C470.088 173 458 161.359 458 147C458 132.641 470.088 121 485 121C499.912 121 512 132.641 512 147Z" fill="white" fill-opacity="0.87"/>
</g>
<defs>
<linearGradient id="paint0_linear_7_32" x1="442.548" y1="-15.8709" x2="442.548" y2="40.9676" gradientUnits="userSpaceOnUse">
<stop stop-color="#01001B"/>
<stop offset="0.09375" stop-color="#01001B" stop-opacity="0.89"/>
<stop offset="0.307292" stop-color="#01001B" stop-opacity="0.83"/>
<stop offset="0.489583" stop-color="#898995"/>
<stop offset="0.489683" stop-color="#898995"/>
<stop offset="0.650942" stop-color="#CBCAD0"/>
<stop offset="0.651042" stop-color="#CBCAD0"/>
<stop offset="0.885417" stop-color="white"/>
</linearGradient>
<linearGradient id="paint1_linear_7_32" x1="318.37" y1="227.87" x2="318.37" y2="288.87" gradientUnits="userSpaceOnUse">
<stop stop-color="#01001B" stop-opacity="0"/>
<stop offset="0.776042" stop-color="white" stop-opacity="0.23"/>
</linearGradient>
<linearGradient id="paint2_linear_7_32" x1="391" y1="93" x2="319" y2="185" gradientUnits="userSpaceOnUse">
<stop offset="0.487104" stop-color="white"/>
<stop offset="1" stop-color="white" stop-opacity="0"/>
</linearGradient>
<clipPath id="clip0_7_32">
<rect width="467" height="283" fill="white"/>
</clipPath>
</defs>
</svg>
